<?xml version="1.0" standalone="no"?>
<!DOCTYPE svg PUBLIC "-//W3C//DTD SVG 1.1//EN" "http://www.w3.org/Graphics/SVG/1.1/DTD/svg11.dtd" >
<svg xmlns="http://www.w3.org/2000/svg">
<metadata></metadata>
<defs>
<font id="magistralcbold" horiz-adv-x="1322" >
<font-face units-per-em="2048" ascent="1638" descent="-410" />
<missing-glyph horiz-adv-x="467" />
<glyph horiz-adv-x="2048" />
<glyph horiz-adv-x="2048" />
<glyph unicode="&#xd;" horiz-adv-x="467" />
<glyph unicode=" "  horiz-adv-x="467" />
<glyph unicode="&#x09;" horiz-adv-x="467" />
<glyph unicode="&#xa0;" horiz-adv-x="467" />
<glyph unicode="!" horiz-adv-x="517" d="M121 1405l17 -1014h241l19 1014h-277zM136 0h245v249h-245v-249z" />
<glyph unicode="&#x22;" horiz-adv-x="780" d="M121 1405l11 -499h197l10 499h-218zM442 1405l12 -499h197l10 499h-219z" />
<glyph unicode="#" horiz-adv-x="1753" d="M80 362h265l-142 -362h199l144 362h377l-144 -362h200l145 362h267l70 172h-266l142 353h266l71 172h-267l138 346h-200l-139 -346h-377l138 346h-201l-138 -346h-266l-71 -172h267l-142 -353h-267zM616 534l143 353h377l-142 -353h-378z" />
<glyph unicode="$" horiz-adv-x="1344" d="M80 1072q0 -48 8 -105.5t40 -111.5q41 -67 89 -91.5t104 -43.5l269 -86v-423h-458v-211h458v-136h157v136h132q34 0 72.5 1t76 7t74 19t66.5 38q34 26 53.5 59t29 68.5t11.5 74t2 76.5q0 69 -8.5 126t-53.5 115q-50 67 -107 91t-111 41l-237 77v402h429v210h-429v137 h-157v-137h-163q-34 0 -71 -3.5t-74 -12t-72.5 -27.5t-62.5 -52q-44 -50 -55.5 -113t-11.5 -125zM353 1026q0 30 7.5 67t28.5 59q18 18 54 30.5t93 12.5h54v-352l-132 42q-14 4 -32 12.5t-34.5 24t-27.5 41t-11 63.5zM747 211v373l100 -32q88 -29 116.5 -80t28.5 -108 q0 -43 -12.5 -72t-29.5 -45q-27 -23 -75 -29.5t-80 -6.5h-48z" />
<glyph unicode="%" horiz-adv-x="1639" d="M121 1080q0 -34 1.5 -70.5t9.5 -71t23.5 -68t43.5 -60.5q48 -46 112 -56.5t120 -10.5q54 0 118.5 10.5t112.5 56.5q27 27 42.5 60.5t24 69t11.5 72t3 68.5q0 30 -3 67t-11.5 73t-24.5 69.5t-42 58.5q-48 47 -112.5 58t-118.5 11q-56 0 -120 -11t-112 -58 q-28 -26 -43.5 -60t-23.5 -70t-9.5 -72t-1.5 -66zM285 1080q0 67 9 103.5t25 57.5q23 28 54 35t58 7t56.5 -7.5t54.5 -34.5q28 -33 32 -80t4 -81t-4 -81t-32 -80q-25 -28 -54.5 -35t-56.5 -7q-28 0 -59 7t-53 35q-15 20 -24.5 57t-9.5 104zM377 0h177l716 1405h-176z M897 325q0 -34 2.5 -70t10 -71t23 -68.5t42.5 -59.5q48 -46 112.5 -57t120.5 -11q54 0 118.5 11t112.5 57q26 26 42 59.5t24 69t11 72t3 68.5q0 31 -3 67.5t-11 73t-24 69.5t-42 59q-48 46 -112.5 57t-118.5 11q-56 0 -120.5 -11t-112.5 -57q-28 -27 -43 -60.5t-22.5 -70 t-10 -72.5t-2.5 -66zM1061 325q0 67 9.5 104t25.5 57q22 28 53 35t59 7q27 0 57 -7t54 -35q29 -32 32 -79t3 -82q0 -34 -3.5 -81t-31.5 -79q-24 -29 -54 -36t-57 -7q-28 0 -59 7t-53 36q-16 19 -25.5 56.5t-9.5 103.5z" />
<glyph unicode="&#x26;" horiz-adv-x="1494" d="M121 393q0 -71 11.5 -146.5t68.5 -142.5q32 -40 70 -60.5t77 -31t76.5 -11.5t71.5 -1h467q20 0 49.5 1t60 6t61 16t52.5 33q40 40 49.5 100.5t9.5 110.5v342h210v188h-841q-13 0 -35.5 1t-46.5 5t-47 13t-41 25t-28 39.5t-16.5 47.5t-7.5 45t-1 32q0 69 14 106t37 53 q24 18 69 25.5t85 7.5h632v208h-734q-77 0 -150.5 -13t-130.5 -71q-33 -32 -51 -70.5t-27 -76.5t-11 -75.5t-2 -64.5q0 -65 13.5 -128t55.5 -117q30 -40 66 -59.5t76 -22.5v-4q-64 -10 -103 -39.5t-58 -52.5q-38 -52 -44.5 -111.5t-6.5 -106.5zM389 404v23q0 18 2 39.5 t7.5 42.5t13.5 35q9 16 39.5 39t96.5 23h438v-323q0 -15 -2.5 -31.5t-12.5 -27.5q-10 -9 -31 -12t-49 -3h-315q-34 0 -80 7.5t-75 44.5q-4 6 -18 37t-14 106z" />
<glyph unicode="'" horiz-adv-x="461" d="M121 1405l11 -499h197l12 499h-220z" />
<glyph unicode="(" horiz-adv-x="743" d="M121 319q0 -66 1.5 -127.5t15.5 -124.5q16 -73 44.5 -127.5t86.5 -108.5q49 -48 102.5 -78t104 -46t98.5 -21t90 -5v168q-112 4 -192.5 52.5t-118.5 110.5q-40 64 -46 135.5t-6 129.5v544q0 62 6 132t46 135q40 64 119.5 111.5t191.5 49.5v168q-140 -2 -239.5 -48 t-155.5 -99q-54 -50 -83 -105t-46 -119q-16 -71 -17.5 -136t-1.5 -129v-462z" />
<glyph unicode=")" horiz-adv-x="745" d="M80 -151v-168q85 -2 190 26t209 124q58 54 85.5 108.5t44.5 127.5q13 68 15 127t2 125v462q0 69 -2 130.5t-18 134.5q-18 76 -48 128t-79 96q-70 65 -174 105t-225 42v-168q111 -2 193 -49.5t120 -111.5q53 -86 53 -267v-544q0 -102 -15 -164.5t-38 -100.5 q-38 -65 -120 -112t-193 -51z" />
<glyph unicode="*" horiz-adv-x="1019" d="M80 904l77 -134l280 163v-327h145v327l281 -163l76 134l-284 164l284 164l-72 124l-285 -163v328h-145v-328l-284 163l-73 -124l286 -164z" />
<glyph unicode="+" horiz-adv-x="1161" d="M121 538h369v-369h182v369h370v171h-370v369h-182v-369h-369v-171z" />
<glyph unicode="," horiz-adv-x="557" d="M0 -126l178 -107l259 400l-192 114z" />
<glyph unicode="-" horiz-adv-x="876" d="M80 437h717v207h-717v-207z" />
<glyph unicode="." horiz-adv-x="485" d="M121 0h245v259h-245v-259z" />
<glyph unicode="/" horiz-adv-x="1017" d="M0 -333h138l879 1819h-138z" />
<glyph unicode="0" horiz-adv-x="1291" d="M80 508q0 -44 5 -105.5t22 -124.5t50.5 -121.5t91.5 -98.5q42 -31 95.5 -44.5t107.5 -18.5t104 -5h90h89q52 0 106 5t107.5 19t95.5 44q30 19 60 55t54 90t39 129.5t15 175.5v403q0 87 -14 152t-35 114t-47 82.5t-51 54.5q-42 36 -91 57.5t-103 32.5t-111 13t-114 2 q-58 0 -114.5 -2t-110 -13t-103 -32.5t-92.5 -57.5q-24 -22 -49.5 -55t-46.5 -82t-35.5 -114t-14.5 -152v-403zM345 538v362q0 24 2 57t11.5 66.5t27.5 67t49 60.5q40 34 102.5 45.5t108.5 11.5t108.5 -12t102.5 -45q32 -27 50 -60.5t27.5 -67t11.5 -67t2 -56.5v-362 q0 -62 -9.5 -138.5t-51.5 -126.5q-25 -28 -54.5 -42t-61.5 -21t-64.5 -8t-60.5 -1q-29 0 -60.5 1t-64.5 8t-63.5 21t-53.5 42q-33 39 -46 103t-13 162z" />
<glyph unicode="1" horiz-adv-x="605" d="M0 1195h155q16 0 29 -3.5t23 -19.5q10 -14 11.5 -35t1.5 -39v-1098h266v1228q0 32 -8.5 70.5t-44.5 68.5q-48 38 -130 38h-303v-210z" />
<glyph unicode="2" horiz-adv-x="1258" d="M80 169q0 -62 19.5 -96.5t45.5 -50.5t50 -19t33 -3h890v211h-699q-9 0 -12 4t-3 7q0 8 8.5 14.5t12.5 10.5l567 393q32 22 63 47t59 66q46 68 55 144t9 135q0 78 -13 155t-71 136q-29 28 -59.5 44t-61.5 25t-61.5 11t-54.5 2h-683v-210h561q104 0 142 -49 q16 -23 22.5 -57.5t6.5 -86.5q0 -60 -13.5 -110.5t-75.5 -92.5l-650 -446q-33 -23 -60 -61.5t-27 -122.5z" />
<glyph unicode="3" horiz-adv-x="1241" d="M80 0h751q62 0 123 14t116 68q62 62 77 139.5t15 165.5q0 29 -2 63t-9 69t-23 68t-44 62q-27 24 -66 42t-87 19v6q52 4 88 27t57 46q46 52 56 118t10 129q0 56 -10 130.5t-56 133.5q-30 39 -64.5 60t-70 31t-70 12t-63.5 2h-704v-210h601q30 0 64 -7.5t62 -35.5 q27 -28 32.5 -67t5.5 -78q0 -36 -6 -77t-32 -69q-30 -34 -73.5 -40.5t-75.5 -6.5h-565v-210h582q19 0 59.5 -5t72.5 -29q42 -32 50 -76t8 -92q0 -46 -9 -92.5t-53 -74.5q-28 -17 -72.5 -20.5t-110.5 -3.5h-564v-211z" />
<glyph unicode="4" horiz-adv-x="1390" d="M40 431q0 -60 15.5 -96t32.5 -56q33 -32 64.5 -37t60.5 -5h674v-237h265v237h179v211h-179v820q0 27 -3 53.5t-31 55.5q-28 28 -62.5 36t-63.5 8q-35 0 -90 -13t-105 -67l-678 -727q-52 -55 -65.5 -99t-13.5 -84zM293 471q0 8 8 17.5t17 17.5l537 596q11 13 15.5 16.5 t8.5 3.5q8 0 8 -8v-666h-558q-24 0 -30 9t-6 14z" />
<glyph unicode="5" horiz-adv-x="1239" d="M80 869q0 -17 2 -44.5t9 -57.5t23 -59.5t47 -48.5q19 -16 46.5 -24.5t54.5 -11.5t53 -4t47 -1h373q56 0 84 -18t38 -34q19 -28 24.5 -70t5.5 -71q0 -40 -7 -85t-23 -70q-29 -42 -70.5 -50.5t-72.5 -8.5h-626v-211h709q28 0 61 1t69 9t71.5 24t64.5 46q33 33 53 75t29 88 t12 95t3 97q0 73 -10 147.5t-62 139.5q-52 67 -113.5 87t-125.5 20h-387q-23 0 -51 5t-43 21q-16 17 -19.5 43.5t-3.5 49.5v174q0 12 1 28t12 26q8 10 22.5 14.5t31.5 4.5h702v210h-847q-10 0 -27.5 -1t-37.5 -6t-40 -15t-38 -29q-15 -15 -29.5 -46t-14.5 -84v-355z" />
<glyph unicode="6" horiz-adv-x="1281" d="M121 387q0 -96 24 -179.5t100 -138.5q40 -31 99.5 -50t130.5 -19h352q42 0 86 6t86.5 21t79.5 43t63 74q19 36 31.5 79.5t19 87.5t8 82t1.5 63q0 34 -2.5 77t-13 87t-33.5 87.5t-61 77.5q-60 54 -127.5 65t-127.5 11h-452v150q0 20 6.5 61.5t39.5 75.5q35 34 79 40.5 t72 6.5h550v210h-644q-48 0 -117.5 -12t-127.5 -58q-18 -16 -40.5 -40.5t-40.5 -60t-29.5 -84t-11.5 -110.5v-653zM385 400v251h331q41 0 86 -8.5t79 -44.5q34 -34 41 -77.5t7 -80.5q0 -36 -6 -86.5t-40 -88.5q-34 -39 -75.5 -46.5t-68.5 -7.5h-171q-64 0 -96 14t-49 30 q-13 14 -20.5 35t-11.5 41t-5 38t-1 31z" />
<glyph unicode="7" horiz-adv-x="1078" d="M-20 1195h788q12 0 27 -3.5t15 -23.5q0 -10 -3.5 -20t-17.5 -32l-724 -1116h295l692 1096q24 38 36 75t12 87q0 27 -5 54t-22.5 47t-47 33t-79.5 13h-966v-210z" />
<glyph unicode="8" horiz-adv-x="1270" d="M80 371q0 -66 10 -128.5t52 -120.5q34 -46 75.5 -70t85.5 -36t90.5 -14t90.5 -2h303q44 0 90 2t90 14t85.5 36t75.5 70q46 58 54 118.5t8 130.5q0 33 -2 69.5t-10 75t-25 73.5t-48 64q-24 22 -62 38t-78 21v4q67 8 117 63q56 58 66 120t10 118q0 29 -2 69t-11 82 t-28 83.5t-56 73.5q-30 28 -68.5 44t-82 24t-87.5 10t-84 2h-209q-28 0 -70.5 -2t-87.5 -9t-89 -23.5t-76 -45.5q-35 -30 -54 -72.5t-27.5 -85.5t-10.5 -83t-2 -67q0 -56 9.5 -118t66.5 -120q50 -54 116 -63v-4q-35 -3 -73.5 -18.5t-66.5 -40.5q-31 -29 -48 -64t-25 -73.5 t-10 -75t-2 -69.5zM353 414q0 28 9 76t50 82q30 25 67.5 29.5t58.5 4.5h195q20 0 58 -5t68 -29q41 -34 49.5 -82t8.5 -76q0 -29 -5.5 -76t-30.5 -75q-16 -18 -49 -35t-91 -17h-211q-58 0 -91 17t-50 35q-24 28 -30 75t-6 76zM385 1004q0 32 6.5 78t43.5 78q31 27 66 31t69 4 h129q34 0 71 -4.5t65 -30.5q34 -30 42 -78t8 -78q0 -95 -28 -135q-29 -40 -66.5 -46t-70.5 -6h-170q-29 0 -69.5 6t-68.5 46q-27 38 -27 135z" />
<glyph unicode="9" horiz-adv-x="1237" d="M80 975q0 -88 12 -172.5t71 -151.5q30 -37 65 -58t69 -31t63 -13t48 -3h485v-119q0 -34 -7 -85t-41 -85q-35 -35 -79 -40.5t-78 -5.5h-544v-211h633q32 0 76 3t90.5 19t90.5 51.5t76 98.5q33 65 40.5 139t7.5 151v566q0 52 -11 117t-51 123q-33 48 -75 75.5t-88 40 t-93 17t-87 4.5h-284q-66 0 -143 -14t-140 -70q-38 -36 -58.5 -80t-32 -91.5t-13.5 -93t-2 -81.5zM353 969q0 75 17 116t40 61q19 19 52.5 34t87.5 15h162q52 0 85.5 -15.5t51.5 -33.5q32 -33 38 -73.5t6 -65.5v-250h-325q-13 0 -34.5 1t-44.5 5.5t-45.5 13t-37.5 22.5 q-29 28 -41 76t-12 94z" />
<glyph unicode=":" horiz-adv-x="485" d="M121 0h245v253h-245v-253zM121 810h245v253h-245v-253z" />
<glyph unicode=";" horiz-adv-x="567" d="M0 -126l178 -107l259 400l-192 114zM203 810h245v253h-245v-253z" />
<glyph unicode="&#x3c;" horiz-adv-x="1165" d="M121 810l925 -465v185l-596 280l596 282v185z" />
<glyph unicode="=" horiz-adv-x="1163" d="M121 395h923v171h-923v-171zM121 699h923v170h-923v-170z" />
<glyph unicode="&#x3e;" horiz-adv-x="1165" d="M121 345l925 465l-925 467v-185l595 -282l-595 -280v-185z" />
<glyph unicode="?" horiz-adv-x="971" d="M40 1195h408q34 0 68 -3.5t68 -35.5q30 -30 36 -66t6 -73q0 -46 -7.5 -76t-23 -51t-35.5 -36t-46 -29l-131 -78q-30 -18 -60 -43.5t-53 -52.5q-24 -35 -31.5 -69t-7.5 -74v-117h244v111q0 17 3.5 36.5t17.5 37.5q10 12 30 30t38 28l154 94q60 36 94.5 75.5t51.5 81.5 t22 85t5 89q0 58 -12 130.5t-58 126.5q-28 32 -63.5 50.5t-69 26.5t-66 10t-54.5 2h-528v-210zM231 0h244v249h-244v-249z" />
<glyph unicode="@" horiz-adv-x="2038" d="M121 562q0 -121 4.5 -226t20 -196.5t41.5 -166.5t70 -136q58 -80 131.5 -125t145.5 -68t136.5 -28t106.5 -5h640v169h-609q-116 0 -196 24t-132.5 63t-82 89t-48.5 102q-16 50 -26 115.5t-15 131.5t-6 123.5t-1 92.5q0 119 4 200.5t11 135.5t15 86t18 55q34 82 91.5 130 t125.5 73t140.5 32.5t136.5 7.5h404q46 0 102 -4.5t113 -20.5t109.5 -51t90.5 -97q12 -19 26 -53t24 -85t17.5 -124t7.5 -174q0 -92 -2.5 -154t-6.5 -104.5t-10 -68.5t-14 -46q-38 -96 -122 -96q-20 0 -47.5 6.5t-51.5 28t-41 61.5t-17 109v499q0 33 -3 66.5t-35 68.5 q-33 32 -69.5 38t-72.5 6h-291q-139 0 -229.5 -57.5t-134.5 -141.5q-23 -44 -40.5 -120t-17.5 -215q0 -129 17 -211t47 -134q34 -58 80 -92.5t95.5 -52.5t95.5 -23t83 -5q38 0 86 5t98 25t97.5 56.5t80.5 99.5q12 -48 39.5 -84t65.5 -58t81.5 -33t87.5 -11q104 0 168 44 t102 123q42 86 52.5 198t10.5 253q0 71 -2 140t-11.5 136.5t-29.5 131.5t-55 124q-58 96 -137 149.5t-159.5 79t-157 31t-128.5 5.5h-390q-77 0 -156 -6.5t-156 -28.5t-148 -66t-132 -120q-48 -62 -75 -130t-41.5 -144.5t-17 -164t-2.5 -187.5zM733 515q0 73 12 147.5 t63 128.5q25 24 51 38t51 21t47 9t39 2h150q15 0 34.5 -5t31.5 -17q18 -18 18 -50v-287q0 -48 -12 -112.5t-58 -119.5q-30 -34 -80 -62t-126 -28q-58 0 -105.5 20t-80.5 81q-26 48 -30.5 109.5t-4.5 124.5z" />
<glyph unicode="A" horiz-adv-x="1400" d="M-60 0h279l143 355h676l144 -355h279l-530 1262q-38 88 -89 123.5t-141 35.5q-94 0 -143.5 -35.5t-88.5 -123.5zM429 544l232 572q5 16 15 37t25 21q13 0 23.5 -21t16.5 -37l228 -572h-540z" />
<glyph unicode="B" horiz-adv-x="1448" d="M121 199q0 -60 19 -95t29 -48q42 -48 90 -52t101 -4h672q32 0 65 1t65.5 10t64 27t62.5 52q59 69 69.5 147.5t10.5 147.5q0 31 -1 62.5t-7.5 65t-20 65t-38.5 58.5q-26 28 -64.5 49.5t-89.5 24.5v8q40 4 71 20.5t62 52.5q46 56 56 113t10 115q0 35 -3 75t-12 80t-26 78.5 t-48 68.5q-28 28 -60 45t-66 26t-67 11t-61 2h-691q-35 0 -75.5 -10t-72.5 -48q-23 -29 -33.5 -66.5t-10.5 -78.5v-1003zM385 316v288h538q65 0 98 -21t44 -37q20 -29 25.5 -71t5.5 -71q0 -35 -7 -75t-30 -68q-30 -37 -76 -43.5t-77 -6.5h-418q-16 0 -43.5 2t-42.5 20 q-8 10 -12.5 29t-4.5 54zM385 814v302q0 12 3 30t16 32q12 14 28 15.5t32 1.5h433q34 0 68.5 -4.5t62.5 -32.5q34 -32 40 -77t6 -74q0 -72 -11 -102t-19 -40q-29 -38 -67 -44.5t-77 -6.5h-515z" />
<glyph unicode="C" d="M80 682q0 -58 4 -125t18.5 -135.5t42 -135t77.5 -121.5q48 -54 105.5 -87.5t117 -50.5t117.5 -22t108 -5h592v211h-475q-125 0 -219.5 26t-148.5 108q-9 16 -21.5 42.5t-22 66.5t-16 97.5t-6.5 134.5q0 157 23.5 244t54.5 133q31 44 70 70.5t86 40.5t101.5 17.5 t112.5 3.5h440v210h-565q-38 0 -94 -4.5t-120 -22t-128.5 -52.5t-116.5 -98q-45 -52 -71.5 -115t-41 -134.5t-19.5 -146.5t-5 -150z" />
<glyph unicode="D" horiz-adv-x="1502" d="M121 178q0 -57 19 -90.5t38 -49.5q8 -6 43.5 -22t113.5 -16h571q82 0 146 16t112 42t80.5 56t53.5 58q43 56 68 127.5t38 145.5t16 145t3 128q0 62 -3 130.5t-17 137t-43 132.5t-79 121q-65 70 -165.5 118t-246.5 48h-550q-64 0 -99.5 -22t-50.5 -38q-35 -41 -41.5 -83 t-6.5 -82v-1002zM385 307v803q0 23 8.5 41.5t20.5 28.5q13 10 31.5 12.5t29.5 2.5h276q36 0 76 -4.5t80.5 -15.5t77 -31t67.5 -52q32 -35 52 -78t30 -89t13.5 -94t3.5 -92q0 -178 -23 -268t-48 -130q-46 -74 -119.5 -102t-183.5 -28h-306q-17 0 -35.5 2t-31.5 18 q-16 16 -17.5 35t-1.5 41z" />
<glyph unicode="E" horiz-adv-x="1306" d="M121 209q0 -40 7.5 -85.5t43.5 -79.5q35 -34 75 -39t86 -5h914v211h-751q-32 0 -55.5 3t-34.5 14q-20 16 -21 55v329h833v211h-833v282q0 16 3 34.5t20 34.5q15 14 34.5 17.5t36.5 3.5h760v210h-902q-40 0 -87 -8t-81 -47q-23 -26 -35.5 -64.5t-12.5 -81.5v-995z" />
<glyph unicode="F" horiz-adv-x="1245" d="M121 0h264v606h622v211h-622v305q0 14 2 29t15 27q12 14 23.5 15.5t26.5 1.5h787v210h-916q-36 0 -75 -8t-76 -43q-32 -30 -41.5 -65t-9.5 -69v-1220z" />
<glyph unicode="G" horiz-adv-x="1458" d="M80 695q0 -75 5 -155t23 -157.5t55.5 -147.5t101.5 -124q48 -40 128 -75.5t199 -35.5h598q30 0 69 10t68 32q20 16 36 50t16 88v508h-265v-383q0 -16 -3.5 -36t-18.5 -36q-16 -15 -34 -18.5t-37 -3.5h-343q-84 0 -154 29t-114 118q-8 15 -18.5 42t-18 69.5t-14 99.5 t-6.5 134q0 76 6.5 132t14 96t18 67.5t20.5 43.5q40 74 118.5 113.5t191.5 39.5h625v210h-698q-207 0 -340 -86q-79 -50 -124 -121.5t-68 -155t-30 -172.5t-7 -175z" />
<glyph unicode="H" horiz-adv-x="1500" d="M121 0h264v618h731v-618h265v1405h-265v-576h-731v576h-264v-1405z" />
<glyph unicode="I" horiz-adv-x="505" d="M121 0h264v1405h-264v-1405z" />
<glyph unicode="J" horiz-adv-x="892" d="M-40 0h359q65 0 117 12t93 31t72 43.5t54 45.5q15 16 36 44.5t39.5 71.5t30 103.5t11.5 140.5v913h-264v-843q0 -91 -16.5 -161t-74.5 -120q-51 -46 -116.5 -58t-109.5 -12h-231v-211z" />
<glyph unicode="K" horiz-adv-x="1404" d="M121 0h264v1405h-264v-1405zM464 722q0 -36 18 -85t70 -97l578 -540h335l-664 592q-29 26 -56 56t-27 76q0 36 21 59.5t46 45.5l606 576h-328l-531 -526q-28 -28 -48 -72.5t-20 -84.5z" />
<glyph unicode="L" horiz-adv-x="1199" d="M121 153q0 -46 17 -74.5t33 -42.5q24 -19 60 -27.5t70 -8.5h940v211h-772q-32 0 -45.5 5.5t-19.5 9.5q-16 14 -17.5 31.5t-1.5 29.5v1118h-264v-1252z" />
<glyph unicode="M" horiz-adv-x="1990" d="M121 0h264l-6 1094q0 4 3 23t20 19q10 0 19.5 -17t13.5 -29l360 -937q12 -34 26 -64.5t36 -53.5t55.5 -37t83.5 -14q46 0 77.5 11t54.5 33t37.5 53.5t31.5 71.5l358 937q4 12 14.5 29t20.5 17q5 0 14.5 -7t9.5 -35l-9 -1094h266v1237q0 96 -64.5 140t-163.5 44 q-38 0 -71.5 -6t-66 -25t-59.5 -54.5t-50 -94.5l-362 -938q-10 -23 -19.5 -37.5t-18.5 -14.5q-10 0 -19.5 15t-19.5 37l-363 938q-14 36 -32 69t-45 58t-68 39t-102 14q-16 0 -53 -3t-75.5 -21t-68 -55.5t-29.5 -104.5v-1237z" />
<glyph unicode="N" horiz-adv-x="1584" d="M121 0h256v1032q0 22 10.5 31t18.5 9q4 0 9.5 -6.5t21.5 -27.5l593 -936q46 -75 104.5 -96.5t121.5 -21.5q87 0 148 46t61 152v1223h-257v-1036q0 -7 -3 -20.5t-19 -13.5q-14 0 -19 12.5t-13 21.5l-596 941q-29 46 -79 78.5t-144 32.5q-100 0 -157 -50t-57 -141v-1230z " />
<glyph unicode="O" horiz-adv-x="1603" d="M80 703q0 -60 3 -134.5t18.5 -152t48 -151.5t93.5 -133q58 -56 129.5 -86t146.5 -44t148.5 -16t135.5 -2q59 0 133.5 2t150 16t146.5 44t130 86q54 52 86 122.5t48 146.5t21 153.5t5 148.5q0 68 -4 146t-21 154.5t-49 146.5t-86 122q-58 56 -129.5 86.5t-147 44.5 t-149 16t-134.5 2q-65 0 -138 -2t-147 -16t-145.5 -44t-129.5 -87q-58 -54 -90 -123t-48.5 -144.5t-20.5 -152.5t-4 -149zM353 703q0 162 23.5 251.5t63.5 141.5q62 76 156.5 95t204.5 19q108 0 204.5 -19t158.5 -95q16 -20 32 -50.5t28.5 -76.5t19 -111t6.5 -155 q0 -85 -6.5 -149t-19 -110t-27.5 -78.5t-33 -54.5q-32 -41 -72 -64t-87.5 -34.5t-98.5 -14.5t-105 -3t-106.5 3t-98.5 14.5t-86.5 34.5t-69.5 64q-18 22 -33.5 53t-27 78.5t-19 110.5t-7.5 150z" />
<glyph unicode="P" horiz-adv-x="1460" d="M121 0h264v498h659q61 0 117.5 18t96.5 50q42 35 66 83t36.5 101t16.5 106t4 96q0 44 -3 94t-14.5 100.5t-32.5 95.5t-57 79q-32 32 -69 49t-74 25t-72.5 9t-62.5 1h-669q-36 0 -80 -10t-78 -45q-37 -36 -42.5 -75.5t-5.5 -79.5v-1195zM385 709v401q0 18 2 35t17 31 q15 16 31.5 17.5t30.5 1.5h427q34 0 82 -7.5t82 -41.5q35 -35 42.5 -90.5t7.5 -101.5q0 -20 -1 -46.5t-5.5 -52.5t-13.5 -51t-26 -44q-34 -40 -81 -45.5t-91 -5.5h-504z" />
<glyph unicode="Q" horiz-adv-x="1617" d="M80 699q0 -58 2 -130.5t18.5 -149t49 -150.5t97.5 -137q44 -42 96 -68t119.5 -40t151 -19t189.5 -5h767v219l-201 -8v8q36 34 59 67t37 61q42 88 50 188.5t8 180.5q0 115 -10 201.5t-30 152.5t-50 114t-70 88q-46 44 -100.5 72.5t-121.5 45.5t-151.5 24t-186.5 7 q-205 0 -338.5 -31.5t-221.5 -117.5q-58 -56 -90 -124t-48.5 -142.5t-20.5 -152.5t-4 -154zM353 705q0 90 8 154t20 109t27 75.5t32 50.5q32 40 71 63t85 35t98.5 15t106.5 3q56 0 108 -3t98.5 -15t85.5 -35t71 -63q40 -52 63 -140.5t23 -248.5q0 -93 -9 -159.5t-22 -111.5 t-28 -72t-27 -43q-30 -38 -70 -60t-86.5 -32t-98.5 -13t-108 -3q-54 0 -106.5 3t-98.5 13t-85.5 32t-70.5 60q-16 18 -31.5 47t-27.5 74.5t-20 109.5t-8 155z" />
<glyph unicode="R" horiz-adv-x="1472" d="M121 0h264v1094q0 22 3 41t26 37q15 16 31.5 19.5t38.5 3.5h429q33 0 75 -5.5t73 -37.5q23 -22 37 -66t14 -129q0 -17 -1 -43.5t-4.5 -53.5t-10 -53t-16.5 -43q-28 -42 -69.5 -51.5t-75.5 -9.5h-265q-58 0 -88 -27t-30 -70v-32q0 -30 22 -63.5t44 -54.5l462 -456h333 l-534 496v10h180q60 0 104.5 13t75.5 34t51 46t35 52q42 78 51 159t9 157q0 77 -10 157t-61 153q-30 46 -67 72t-77 37.5t-80 15t-77 3.5h-666q-40 0 -85 -10t-84 -47q-42 -40 -49.5 -89t-7.5 -93v-1166z" />
<glyph unicode="S" d="M60 1065q0 -30 2.5 -64t10 -69t22 -69t37.5 -62q20 -27 46.5 -44.5t50.5 -31t43 -20t27 -8.5l554 -176q46 -13 73.5 -32.5t41 -40.5t18 -43t4.5 -41q0 -18 -3 -44.5t-16.5 -50.5t-39 -41t-74.5 -17h-779v-211h864q70 0 134 16t117 84q44 56 56.5 125.5t12.5 136.5 q0 24 -3 58t-11.5 71t-27 74t-50.5 67t-81 54t-120 47l-513 162q-85 28 -108 70t-23 89q0 19 5 51.5t32 56.5q24 23 53 28t56 5h719v210h-809q-52 0 -114 -13t-116 -65q-60 -56 -75.5 -126.5t-15.5 -135.5z" />
<glyph unicode="T" d="M-20 1195h548v-1195h265v1195h550v210h-1363v-210z" />
<glyph unicode="U" horiz-adv-x="1460" d="M121 494q0 -90 21 -183.5t101 -176.5q52 -54 117 -84t131.5 -45t128.5 -18t110 -3t111 3t129 18t131 45t117 84q80 83 101.5 176.5t21.5 183.5v911h-265v-875q0 -26 -1 -58t-8.5 -64.5t-20 -64.5t-37.5 -58q-28 -30 -64 -48t-74 -27t-75 -12t-66 -3q-30 0 -67 3t-74 12 t-72 27t-63 48q-50 54 -59.5 120t-9.5 125v875h-264v-911z" />
<glyph unicode="V" horiz-adv-x="1352" d="M-60 1405l510 -1269q19 -52 48.5 -82t61.5 -46t62.5 -20t53.5 -4q54 0 92.5 14t65.5 37t43 50.5t27 50.5l509 1269h-287l-419 -1135q-4 -7 -10 -18t-21 -11q-14 0 -19.5 11t-10.5 18l-420 1135h-286z" />
<glyph unicode="W" horiz-adv-x="2009" d="M-60 1405l337 -1225q33 -116 88.5 -156t140.5 -40q61 0 100.5 17t64 44.5t37 58t20.5 61.5l249 909q4 10 9.5 24t17.5 14q17 0 28 -38l247 -909q10 -37 25 -68.5t40 -57t63.5 -40.5t95.5 -15q62 0 101 18t64.5 46t38.5 63.5t23 68.5l339 1225h-269l-279 -1082 q-6 -26 -16 -34t-15 -8q-10 0 -18.5 12t-12.5 23l-260 961q-6 24 -18.5 48.5t-34.5 46t-56.5 35.5t-85.5 14q-56 0 -91.5 -15t-56.5 -37t-31.5 -47t-16.5 -45l-260 -961q-4 -10 -12 -22.5t-19 -12.5q-15 0 -20 16t-9 26l-279 1082h-269z" />
<glyph unicode="X" horiz-adv-x="1260" d="M-60 0h315l375 526l375 -526h316l-540 712l523 693h-314l-360 -505l-360 505h-314l523 -693z" />
<glyph unicode="Y" horiz-adv-x="1331" d="M-60 1405l594 -976v-429h265v429l594 976h-286l-441 -737l-442 737h-284z" />
<glyph unicode="Z" horiz-adv-x="1229" d="M4 144q0 -52 21 -81t51.5 -43t63 -17t57.5 -3h1007v211h-831q-9 0 -16.5 4t-7.5 18q0 12 6.5 20t13.5 16l777 819q30 32 55 68.5t25 103.5q0 42 -13.5 70t-36 45.5t-50.5 23.5t-58 6h-1010v-210h785q24 0 31 -10.5t7 -16.5q0 -10 -7 -21t-17 -21l-767 -793 q-30 -32 -58 -78t-28 -111z" />
<glyph unicode="[" horiz-adv-x="741" d="M121 -319h541v168h-361v1400h361v168h-541v-1736z" />
<glyph unicode="\" horiz-adv-x="1017" d="M0 1486l879 -1819h138l-879 1819h-138z" />
<glyph unicode="]" horiz-adv-x="745" d="M80 -151v-168h546v1736h-546v-168h366v-1400h-366z" />
<glyph unicode="^" horiz-adv-x="1183" d="M121 1182l118 -136l299 291q10 10 24 19t32 9t32 -9t25 -19l297 -291l115 136l-362 339q-23 23 -49 34.5t-60 11.5t-60 -11.5t-48 -34.5z" />
<glyph unicode="_" horiz-adv-x="1147" d="M80 0h988v207h-988v-207z" />
<glyph unicode="`" horiz-adv-x="603" d="M80 1389l326 -265l118 148l-323 268z" />
<glyph unicode="a" horiz-adv-x="1113" d="M52 341q0 -30 2 -68t11 -78t28.5 -77.5t50.5 -65.5q46 -40 97.5 -46t95.5 -6h508q38 0 78 7t69 35q28 29 35 69t7 67v552q0 90 -22 154t-56 97q-37 38 -95 60t-126 22h-605v-180h525q28 0 59 -8t54 -38q20 -25 25.5 -51t5.5 -49v-75h-462q-42 0 -93 -9t-102 -53 q-60 -52 -75 -120t-15 -139zM295 331q0 58 10.5 82t15.5 33q20 26 47 31t40 5h391v-245q0 -12 -2 -23t-14 -21t-27 -11.5t-26 -1.5h-326q-23 0 -44 10.5t-33 22.5q-22 22 -27 58t-5 60z" />
<glyph unicode="b" horiz-adv-x="1119" d="M80 178q0 -32 8 -67t40 -65q37 -34 80 -40t89 -6h335q46 0 97.5 6t100.5 25t93 53.5t77 89.5q32 54 50 137.5t18 214.5q0 102 -13 195t-57 168q-35 58 -79 92t-93 52.5t-100.5 24t-99.5 5.5h-310v342h-236v-1227zM316 269v614h258q27 0 57.5 -4t59.5 -17t54 -36t44 -60 q6 -11 21 -67.5t15 -183.5q0 -106 -13 -155t-23 -71q-20 -40 -49.5 -61t-59 -32.5t-60 -13.5t-54.5 -2h-171q-18 0 -35 3t-29 16q-13 16 -14 35t-1 35z" />
<glyph unicode="c" horiz-adv-x="1029" d="M52 517q0 -114 15 -211t82 -176q36 -42 78.5 -68t85 -40t82.5 -18t71 -4h511v180h-381q-36 0 -75 3t-75 15.5t-66.5 34.5t-50.5 60q-10 20 -17 49t-11 59t-5 59.5t-1 53.5q0 11 1 36.5t2 54.5t5 58.5t10 50.5q19 69 81 119t180 50h380v180h-456q-73 0 -126 -11.5t-92 -29 t-65 -37.5t-43 -35q-44 -46 -68 -101.5t-36 -113t-14 -113.5t-2 -105z" />
<glyph unicode="d" horiz-adv-x="1121" d="M52 548q0 -132 16 -211.5t36 -125.5q30 -71 71.5 -112t87.5 -63t93.5 -29t87.5 -7h419q37 0 77.5 8t68.5 46q16 22 24.5 60.5t8.5 71.5v1219h-235v-342h-315q-32 0 -77.5 -4t-95 -18.5t-98.5 -47t-87 -87.5q-54 -79 -68 -176.5t-14 -181.5zM295 540q0 109 14 164.5 t32 84.5q38 62 94.5 78t102.5 16h269v-613q0 -11 -2 -36t-16 -37q-12 -12 -33 -14.5t-30 -2.5h-188q-26 0 -56 4.5t-59.5 16.5t-55.5 36t-44 64q-5 14 -16.5 64.5t-11.5 174.5z" />
<glyph unicode="e" horiz-adv-x="1129" d="M52 521q0 -106 12 -208t64 -179q33 -46 73 -73t82 -41t86.5 -17t84.5 -3h590v180h-520q-32 0 -65.5 4.5t-63 17.5t-52 38t-34.5 67q-6 24 -10 68t-4 79h618q33 0 62 7.5t53 32.5q34 34 42 77t8 84q0 50 -6.5 99t-23 94t-46 83t-75.5 69q-74 46 -165.5 57t-185.5 11 q-38 0 -88.5 -2.5t-104.5 -11t-107.5 -29t-97.5 -58.5t-69 -84t-38 -101.5t-16 -120.5t-3 -140zM295 634q2 52 7 97.5t41 85.5q25 27 53.5 41.5t59 20.5t58.5 7t52 1q50 0 103 -7t97 -41q27 -20 48 -56t21 -86q0 -23 -9 -43t-43 -20h-488z" />
<glyph unicode="f" horiz-adv-x="705" d="M16 883h149v-883h235v883h291v180h-291v12q0 56 18 89q19 35 42 50q32 23 86 28t145 5v172q-23 1 -48.5 1t-54.5 -1q-56 -2 -113.5 -11.5t-109.5 -28t-90 -48.5q-34 -29 -55 -64t-33.5 -72t-17 -72t-4.5 -62h-149v-178z" />
<glyph unicode="g" horiz-adv-x="1149" d="M52 548q0 -283 82 -412q31 -48 70 -75t81 -40t85.5 -17t85.5 -4h377q-10 -76 -63 -122q-42 -35 -100 -42t-96 -7h-448v-180h502q29 0 74 4t95 16.5t100.5 38t86.5 70.5q52 64 69 152t17 191v746q0 35 -11 78t-52 76q-38 31 -82 36.5t-90 5.5h-343q-40 0 -82 -3 t-84.5 -13.5t-82.5 -33.5t-78 -65q-71 -77 -92 -175.5t-21 -224.5zM295 530q0 18 1 55t7 79.5t19 83.5t38 69q28 33 76 49.5t106 16.5h201q16 0 31 -3t31 -13q19 -13 24.5 -29.5t5.5 -38.5v-619h-279q-52 0 -106.5 8.5t-94.5 54.5q-10 10 -20 30t-19 53.5t-15 82.5t-6 121z " />
<glyph unicode="h" horiz-adv-x="1127" d="M80 0h236v883h274q34 0 82 -9t88 -53q18 -19 28.5 -44.5t16 -50.5t6.5 -48t1 -40v-638h236v701q0 110 -35.5 180.5t-79.5 106.5q-58 46 -133.5 60.5t-165.5 14.5h-318v342h-236v-1405z" />
<glyph unicode="i" horiz-adv-x="394" d="M80 0h236v1063h-236v-1063zM80 1218h236v187h-236v-187z" />
<glyph unicode="j" horiz-adv-x="551" d="M-80 -176v-182q36 -1 68 -1q106 0 182 15q100 19 165 65q18 13 41.5 36.5t44.5 59.5t35.5 87.5t14.5 121.5v1037h-234v-989q0 -86 -21 -131t-61 -73q-40 -31 -89 -40q-41 -6 -111 -6h-35zM237 1218h234v187h-234v-187z" />
<glyph unicode="k" horiz-adv-x="1077" d="M80 0h236v1405h-236v-1405zM385 550q0 -56 25 -96t48 -65l367 -389h280l-435 460q-19 22 -34.5 47t-15.5 51t10 43t25 33l399 429h-273l-321 -353q-23 -26 -49 -62.5t-26 -97.5z" />
<glyph unicode="l" horiz-adv-x="394" d="M80 0h236v1405h-236v-1405z" />
<glyph unicode="m" horiz-adv-x="1675" d="M80 0h236v810q0 31 2.5 42t6.5 15t15 10t37 6h343v-883h236v883h218q32 0 72.5 -8t69.5 -42q29 -32 37 -74.5t8 -76.5v-682h234v718q0 81 -25 149t-71 112q-57 52 -134.5 68t-136.5 16h-958q-36 0 -83 -10.5t-76 -52.5q-20 -29 -25.5 -63.5t-5.5 -57.5v-879z" />
<glyph unicode="n" horiz-adv-x="1133" d="M80 0h236v827q0 10 1 22t10 22q10 10 20.5 11t20.5 1h238q64 0 103.5 -15t65.5 -49q29 -38 36.5 -87.5t7.5 -101.5v-630h235v701q0 110 -31 174t-73 102q-65 58 -139 72t-158 14h-376q-34 0 -81 -4.5t-81 -43.5q-25 -26 -30 -58t-5 -55v-902z" />
<glyph unicode="o" horiz-adv-x="1235" d="M52 528q0 -40 4 -95.5t17 -114.5t40 -115t76 -101q44 -40 98 -63t112.5 -34t114.5 -14t104 -3q46 0 102.5 3t115.5 14t114 34t98 63q57 56 96.5 160t39.5 274q0 42 -4 98.5t-18 114.5t-41 115t-73 99q-44 41 -98.5 64t-112.5 34t-114.5 13t-104.5 2t-104 -2t-114.5 -13 t-112.5 -34t-98 -64q-46 -42 -73.5 -99t-41.5 -116.5t-18 -117.5t-4 -102zM295 530q0 27 1 62.5t7 75t20 77.5t39 65q24 29 57 46t66.5 26t69 11t63.5 2q33 0 66.5 -2t67 -11t64.5 -26t57 -46q29 -30 42.5 -66.5t20 -75t6.5 -74.5v-64q0 -70 -9.5 -142t-61.5 -131 q-52 -58 -119.5 -73t-133.5 -15q-64 0 -133 15t-121 73q-50 58 -59.5 132.5t-9.5 140.5z" />
<glyph unicode="p" horiz-adv-x="1121" d="M80 -341h236v341h296q41 0 90 3t100 18t98.5 46t85.5 86q28 40 45 88t25.5 100t11 106.5t2.5 106.5q0 44 -2.5 95.5t-13 103.5t-33.5 102.5t-64 92.5q-38 40 -82 63t-87 34.5t-80.5 14.5t-63.5 3h-371q-30 0 -66 -5.5t-67 -27.5q-19 -16 -39.5 -47t-20.5 -83v-1241z M316 180v653q0 20 15 36q6 4 15 9t18 5h230q78 0 130.5 -34.5t74.5 -86.5q9 -22 18.5 -71t9.5 -157q0 -118 -14 -174.5t-30 -80.5q-20 -32 -66.5 -65.5t-134.5 -33.5h-266z" />
<glyph unicode="q" horiz-adv-x="1121" d="M52 512q0 -109 13 -202t71 -172q33 -46 72 -73t78 -42t76.5 -19t64.5 -4h380v-341h235v1206q0 31 -4 69.5t-27 67.5q-22 28 -61 44.5t-85 16.5h-430q-30 0 -67 -4.5t-74 -17.5t-73.5 -37.5t-65.5 -61.5q-36 -48 -57.5 -104.5t-31.5 -114t-12 -112.5t-2 -99zM295 526 q0 85 5 139.5t21 94.5q33 77 91.5 100t135.5 23h172q16 0 33 -2t32 -14q16 -13 19 -29.5t3 -27.5v-630h-288q-22 0 -50.5 3t-57 17.5t-54.5 41.5t-41 74q-14 40 -17.5 93t-3.5 117z" />
<glyph unicode="r" horiz-adv-x="667" d="M80 0h236v600q0 60 9.5 114t43.5 94q43 50 99 62.5t102 12.5h98v180h-158q-31 0 -70.5 -2t-83 -10.5t-87 -27.5t-78.5 -52q-69 -58 -90 -139t-21 -170v-662z" />
<glyph unicode="s" horiz-adv-x="1057" d="M52 791q0 -40 9.5 -88t40.5 -92q32 -45 90.5 -76t142.5 -53l205 -57q56 -15 90 -25.5t55.5 -18.5t31 -12.5t16.5 -10.5q20 -18 24.5 -38.5t4.5 -42.5q0 -11 -1.5 -31t-17.5 -35q-16 -20 -38.5 -25.5t-40.5 -5.5h-597v-180h680q38 0 84 7t86 37q31 25 59.5 77.5 t28.5 148.5q0 45 -12 98t-51 98q-40 42 -105 67t-161 53l-228 65q-10 2 -28 7.5t-37 12.5t-37.5 15.5t-29.5 18.5q-25 19 -30 39t-5 43q0 22 4 41t26 35q19 16 40.5 18t41.5 2h564v180h-599q-35 0 -70 -2t-68.5 -10.5t-63.5 -27.5t-54 -52q-32 -44 -41 -92t-9 -88z" />
<glyph unicode="t" horiz-adv-x="684" d="M0 883h147v-536q0 -102 27 -164t79 -105q50 -40 113 -59t172 -19h146v180h-58q-32 0 -87 6.5t-95 39.5q-27 20 -40 49.5t-18 60t-5 59.5v61v427h297v180h-297v342h-234v-342h-147v-180z" />
<glyph unicode="u" horiz-adv-x="1143" d="M80 393q0 -98 21 -176.5t88 -136.5q54 -46 119 -63t158 -17h375q42 0 87 6t79 34q41 33 48.5 78t7.5 73v872h-234v-796q0 -16 -2 -32t-19 -32q-22 -23 -67 -23h-195q-65 0 -112 12.5t-79 56.5q-23 30 -31 73.5t-8 112.5v628h-236v-670z" />
<glyph unicode="v" horiz-adv-x="1040" d="M-48 1063l406 -981q13 -36 35.5 -55t45.5 -28t45 -10t37 -1q23 0 46 2t44 11t40 28t33 53l406 981h-243l-297 -788q-4 -11 -12 -26.5t-17 -15.5q-7 0 -15 15t-12 27l-299 788h-243z" />
<glyph unicode="w" horiz-adv-x="1540" d="M-48 1063l253 -931q6 -22 14.5 -47t28 -46t52.5 -36t87 -15q46 0 78.5 11t53.5 28t33 38t18 42l185 665q2 6 4.5 20.5t10.5 14.5t11.5 -14t5.5 -21l184 -665q12 -40 34.5 -64.5t48.5 -36.5t52 -15t48 -3q31 0 58 5t51 20t43 44t31 75l253 931h-225l-203 -786 q-4 -9 -9 -20.5t-13 -11.5t-12 12l-6 18l-197 702q-10 32 -28 52.5t-40 30.5t-45 13t-42 3q-15 0 -37.5 -2t-44.5 -12t-42 -29.5t-30 -55.5l-195 -702q-2 -4 -5.5 -17t-13.5 -13q-8 0 -13.5 12t-7.5 20l-205 786h-224z" />
<glyph unicode="x" horiz-adv-x="988" d="M-48 0h274l268 393l268 -393h276l-408 546l379 517h-266l-249 -364l-249 364h-268l383 -517z" />
<glyph unicode="y" horiz-adv-x="1087" d="M-48 1063l473 -1059l-162 -347h239l634 1402h-239l-361 -812l-341 816h-243z" />
<glyph unicode="z" horiz-adv-x="932" d="M4 142q0 -52 18 -80t43 -42t50 -17t40 -3h768v180h-605h-13q-6 0 -6 11q0 10 17 26l551 568q23 23 42.5 53.5t19.5 90.5q0 65 -38 99.5t-100 34.5h-753v-180h580q12 0 16 -6t4 -10t-3 -9t-13 -15l-546 -548q-28 -28 -50 -60t-22 -93z" />
<glyph unicode="{" horiz-adv-x="634" d="M40 508q52 -4 78 -36t26 -77v-223q0 -11 1.5 -30.5t2.5 -39.5t2 -38t1 -26q2 -32 10 -69.5t27 -73t50.5 -69t84.5 -57.5q52 -25 115.5 -34.5t115.5 -7.5v169q-48 -4 -87.5 9t-66.5 33q-46 35 -60.5 88.5t-14.5 94.5v252q0 27 -2 55t-12 53t-29 47t-51 34v16 q33 12 51.5 34t28.5 47t12 53.5t2 53.5v253q0 40 14 94.5t61 88.5q28 20 67 33.5t87 9.5v168q-52 2 -115.5 -8t-115.5 -34t-84 -57t-51 -69.5t-27 -73.5t-10 -69q0 -8 -1 -26.5t-2 -38.5t-2.5 -39t-1.5 -31v-222q0 -44 -26 -76.5t-78 -36.5v-124z" />
<glyph unicode="|" horiz-adv-x="381" d="M121 -333h140v1819h-140v-1819z" />
<glyph unicode="}" horiz-adv-x="634" d="M80 -104v-169q52 -2 115.5 8t115.5 34t84 57.5t51.5 69t26 73t11.5 69.5q0 8 1 26t2 38t2 39.5t1 30.5v223q0 44 26 76.5t78 36.5v124q-52 4 -78 36.5t-26 76.5v222q0 12 -1 31t-2 39t-2 38.5t-1 26.5q-4 32 -11 69t-26.5 73.5t-51 69.5t-84.5 57q-52 25 -115.5 34.5 t-115.5 7.5v-168q48 4 87.5 -9.5t67.5 -33.5q46 -34 60 -88.5t14 -94.5v-253q0 -26 2 -54t12 -53t28 -47t53 -34v-16q-35 -12 -53 -34t-28 -47t-12 -53t-2 -55v-252q0 -41 -14 -95t-60 -88q-28 -19 -67.5 -33t-87.5 -9z" />
<glyph unicode="~" horiz-adv-x="1270" d="M121 707l118 -107q16 22 42 53t50 48q23 13 50 22.5t56 9.5q27 0 62 -7.5t77 -30.5l92 -55q27 -16 67 -30t92 -14q54 0 96 17t79 46q36 28 76 69.5t73 88.5l-121 104q-16 -26 -36.5 -53t-41.5 -47q-54 -48 -125 -49q-46 0 -81.5 13.5t-52.5 22.5l-109 63q-34 20 -73.5 30 t-75.5 10q-40 0 -82 -14t-80 -38q-44 -28 -84 -70t-68 -82z" />
<glyph unicode="&#xa9;" horiz-adv-x="1731" d="M121 705q0 -83 7.5 -170t34 -168.5t76.5 -154t132 -126.5q56 -36 119.5 -57t128.5 -31t127 -12t121 -2q56 0 119.5 2t126.5 12t126 31t122 57q75 48 123 111.5t77 141t40 169.5t11 197q0 102 -11 193.5t-39 169.5t-77.5 141t-123.5 112q-56 36 -119.5 55.5t-128.5 30 t-127.5 12.5t-118.5 2t-119.5 -2t-128.5 -12.5t-128.5 -30.5t-119.5 -55q-84 -54 -133 -126.5t-75.5 -155t-34 -168.5t-7.5 -166zM309 705q0 64 5 130.5t23 127t52 114t93 91.5q18 12 49 27t77.5 28.5t110.5 22t148 8.5q85 0 147 -8.5t108 -22t77 -28.5t51 -27 q58 -38 92.5 -91.5t52.5 -114t23 -127.5t5 -130q0 -67 -6 -136t-24 -134.5t-52.5 -120.5t-90.5 -95q-19 -14 -49.5 -29.5t-76.5 -28t-109 -22t-148 -9.5q-84 0 -148 9.5t-110.5 22t-76.5 28t-50 29.5q-58 40 -92.5 95t-52.5 120.5t-23 134.5t-5 136zM479 705 q0 -77 12.5 -147t56.5 -129q52 -72 113 -88t126 -16h371v161h-299q-40 0 -79 7t-68 49q-9 14 -18.5 46t-9.5 103q0 94 13 133t17 45q16 27 35 39.5t40 17.5t42 5h40h261v161h-331q-58 0 -127.5 -18.5t-123.5 -85.5q-50 -65 -60.5 -142.5t-10.5 -140.5z" />
<glyph unicode="&#xab;" horiz-adv-x="1077" d="M121 564q0 -45 14 -73.5t28 -48.5l274 -384l161 120l-227 326q-9 11 -16.5 27.5t-7.5 32.5q0 19 9.5 34.5t14.5 25.5l227 326l-161 120l-274 -384q-14 -20 -28 -48.5t-14 -73.5zM534 564q0 -31 15 -59t27 -43l221 -307l160 120l-166 240q-6 10 -15.5 22.5t-9.5 26.5 q0 17 25 48l166 217l-160 121l-221 -284q-15 -22 -28.5 -49t-13.5 -53z" />
<glyph unicode="&#xad;" horiz-adv-x="876" d="M80 437h717v207h-717v-207z" />
<glyph unicode="&#xae;" horiz-adv-x="1141" d="M121 975q0 -80 13 -165.5t67 -152.5q36 -46 81 -71.5t93 -37.5t95 -14t90 -2q42 0 89.5 2t95.5 11t92 29t80 54q35 34 56 79.5t31.5 94.5t13.5 98.5t3 93.5t-3 92t-14.5 96t-34.5 92.5t-62 77.5q-68 60 -156.5 72.5t-176.5 12.5q-34 0 -81 -1t-97.5 -11t-99.5 -32 t-85 -62q-35 -36 -53 -84t-27 -97.5t-9.5 -96t-0.5 -78.5zM241 994q0 26 1 61t8 71t22 70t41 60q26 27 60.5 41.5t70 22t70 8.5t64.5 1q31 0 66.5 -2t72 -10.5t69.5 -25.5t57 -48q8 -10 18 -27t19 -47.5t15.5 -76.5t6.5 -113q0 -34 -3.5 -72t-12.5 -76t-28 -72.5t-50 -57.5 q-5 -4 -21.5 -14.5t-46.5 -20t-75.5 -18t-106.5 -8.5q-117 0 -181 34.5t-92 74.5q-24 36 -34 94.5t-10 150.5zM343 762h123v332q0 30 7 36q4 4 15.5 5t17.5 1h103q11 0 24 -2t24 -12q13 -14 13 -34v-46q0 -8 -3 -17.5t-8 -13.5q-8 -7 -50 -7h-45q-35 0 -40 -19.5t-5 -32.5 q0 -10 2.5 -24.5t12.5 -25.5l121 -140h150l-150 163h42q17 0 35.5 5t32.5 20t23 44t9 76q0 40 -6 75t-36 63q-29 25 -55 27t-49 2h-209q-20 0 -44.5 -3.5t-39.5 -21.5q-10 -10 -12.5 -24t-2.5 -26v-400z" />
<glyph unicode="&#xbb;" horiz-adv-x="1077" d="M121 275l160 -120l221 307q12 15 27 43.5t15 58.5q0 26 -13.5 53t-28.5 49l-221 284l-160 -121l166 -217q25 -30 24 -48q0 -14 -9 -26t-15 -23zM479 178l161 -120l275 384q14 20 28 48.5t14 73.5q0 44 -14 73t-28 49l-275 384l-161 -120l228 -326q5 -10 14 -25t9 -35 q0 -16 -7 -32.5t-16 -27.5z" />
<glyph unicode="&#xc4;" horiz-adv-x="1422" d="M-52 0l529 1262q38 88 87.5 123.5t144.5 35.5q90 0 141.5 -35.5t88.5 -123.5l530 -1262h-279l-144 355h-677l-143 -355h-278zM362 1544v193h224v-193h-224zM437 544h540l-228 572q-6 16 -16.5 37t-23.5 21q-14 0 -24.5 -21t-16.5 -37zM823 1544v193h225v-193h-225z" />
<glyph unicode="&#xd6;" horiz-adv-x="1542" d="M52 703q0 72 4 149t20 152.5t48.5 144.5t90.5 123q57 56 129 86.5t146 44.5t147 16t138 2q60 0 134.5 -2t149.5 -16t146.5 -44t129.5 -87q54 -52 85 -122t47 -146.5t21.5 -155t5.5 -145.5q0 -56 -3 -131.5t-19.5 -154t-48.5 -153.5t-88 -132q-56 -56 -128.5 -86t-149 -44 t-149.5 -16t-133 -2q-62 0 -135.5 2t-148.5 16t-146.5 44t-129.5 86q-60 58 -93.5 132.5t-48.5 152t-18 151.5t-3 135zM325 703q0 -151 23 -241.5t68 -145.5q61 -81 149 -101t207 -20q44 0 93.5 2t97.5 13.5t91.5 35.5t77.5 70q40 50 64 140t24 247q0 158 -24 247.5 t-64 141.5q-34 42 -78.5 66t-92.5 36t-96 14t-93 2q-46 0 -94 -2t-95 -14t-90 -36t-77 -66q-43 -52 -67 -140.5t-24 -248.5zM421 1544v193h225v-193h-225zM883 1544v193h224v-193h-224z" />
<glyph unicode="&#xdc;" horiz-adv-x="1458" d="M121 494v911h264v-875q0 -58 9.5 -124.5t59.5 -120.5q28 -30 63 -48t72 -27t74 -12t67 -3q29 0 66 3t75 12t74 27t64 48q25 27 37.5 58.5t20 64t8.5 64.5t1 58v875h265v-911q0 -90 -21.5 -183.5t-101.5 -176.5q-52 -54 -117 -84t-131 -45t-128.5 -18t-111.5 -3 q-48 0 -110 3t-128.5 18t-131.5 45t-117 84q-80 83 -101 176.5t-21 183.5zM387 1544v193h225v-193h-225zM849 1544v193h225v-193h-225z" />
<glyph unicode="&#xdf;" horiz-adv-x="1197" d="M60 0v814v161v135q0 60 23.5 114.5t62 94t92 63t115.5 23.5h57h239h108q46 0 95.5 -7t95.5 -29q42 -14 75.5 -58.5t56 -103.5t29.5 -125.5t-7 -125.5t-51.5 -104t-102.5 -63q-10 -4 -21.5 -6t-22.5 -4v-7l22 -4l22 -4q57 -2 98.5 -54.5t62.5 -131t23 -172t-17 -174.5 t-61.5 -140.5t-105.5 -68.5q-39 -16 -81 -19.5t-82 -3.5h-255v211h132q33 0 78 6.5t72 43.5q25 28 31 68t6 77q0 13 -1 41t-4 59.5t-9 58.5t-16 41q-10 17 -43 36.5t-98 19.5h-148v211h127q40 0 76.5 6t65.5 46q34 50 36 98.5t-20 86.5t-65 60.5t-99 22.5h-2 q-119 0 -183 -4.5t-96.5 -37.5t-38.5 -111.5t-6 -225.5v-814h-265z" />
<glyph unicode="&#xe4;" horiz-adv-x="1119" d="M52 341q0 71 15 139t75 120q50 44 101.5 53t93.5 9h462v75q0 24 -5 49.5t-26 50.5q-24 30 -55 38t-58 8h-525v180h605q69 0 126.5 -22t94.5 -60q34 -34 56 -97t22 -154v-552q0 -28 -7.5 -67.5t-34.5 -68.5q-29 -28 -69 -35t-78 -7h-508q-44 0 -95 6t-98 46 q-32 28 -51 65.5t-28 77.5t-11 78t-2 68zM239 1222v197h217v-197h-217zM295 331q0 -24 5 -60t27 -58q12 -12 33 -22.5t44 -10.5h326q10 0 25 1t28 12q12 10 14 20.5t2 23.5v245h-391q-12 0 -39.5 -5.5t-47.5 -30.5q-5 -8 -15.5 -32.5t-10.5 -82.5zM670 1222v197h217v-197 h-217z" />
<glyph unicode="&#xf6;" horiz-adv-x="1235" d="M54 528q0 44 4 102t18 117.5t41 116.5t74 99q44 41 98 64t112.5 34t114.5 13t104 2t104.5 -2t114.5 -13t112 -34t99 -64q46 -42 73.5 -99t41 -115t17.5 -114.5t4 -98.5q0 -170 -39.5 -273.5t-96.5 -160.5q-43 -40 -98 -63t-114 -34t-115.5 -14t-102.5 -3q-48 0 -104 3 t-114.5 14t-112.5 34t-98 63q-48 44 -75.5 100.5t-40.5 115.5t-17 114.5t-4 95.5zM287 1222v197h217v-197h-217zM297 530q0 -66 9.5 -140t59.5 -133q51 -58 120.5 -73t133.5 -15q67 0 134 15t119 73t61.5 130.5t9.5 142.5v64q0 36 -6.5 74.5t-20 75.5t-42.5 66 q-26 29 -57 46t-64.5 26t-67 11t-66.5 2q-28 0 -63.5 -2t-69 -11t-67 -26t-56.5 -46q-25 -28 -39 -65.5t-20 -77t-7 -75t-1 -62.5zM718 1222v197h217v-197h-217z" />
<glyph unicode="&#xfc;" horiz-adv-x="1115" d="M69 393v670h234v-628q0 -70 9 -113t31 -73q32 -44 79 -56.5t112 -12.5h194q46 0 69 23q15 16 17.5 32t2.5 32v796h235v-872q0 -28 -8 -73t-48 -78q-35 -28 -80 -34t-87 -6h-375q-92 0 -157.5 17t-120.5 63q-66 58 -86.5 136.5t-20.5 176.5zM231 1222v197h217v-197h-217z M662 1222v197h217v-197h-217z" />
<glyph unicode="&#x401;" horiz-adv-x="1325" d="M121 209q0 -40 7.5 -85.5t43.5 -79.5q35 -34 75 -39t86 -5h914v211h-751q-32 0 -55.5 3t-34.5 14q-20 16 -21 55v329h833v211h-833v282q0 16 3 34.5t20 34.5q15 14 34.5 17.5t36.5 3.5h760v210h-902q-40 0 -87 -8t-81 -47q-23 -26 -35.5 -64.5t-12.5 -81.5v-995z M345 1544h225v193h-225v-193zM807 1544h225v193h-225v-193z" />
<glyph unicode="&#x402;" horiz-adv-x="1659" d="M-20 1195h343v-1195h265v624h572q25 0 57 -6.5t55 -35.5q28 -34 31 -84t3 -88q0 -54 -4.5 -94.5t-22.5 -62.5q-27 -33 -68 -37.5t-75 -4.5h-213v-211h358q58 0 120 15t108 75q27 34 40.5 84t21 100.5t8.5 92t1 56.5q0 123 -21 187t-44 97q-26 36 -58 57t-65.5 32 t-65 13.5t-58.5 2.5h-680v383h590v210h-1198v-210z" />
<glyph unicode="&#x403;" horiz-adv-x="1125" d="M0 0h265v1102q0 19 1 39.5t11 32.5q14 16 42 18.5t50 2.5h757v210h-940q-46 0 -80.5 -16t-57.5 -39q-34 -34 -41 -70.5t-7 -77.5v-1202zM319 1634l118 -148l325 264l-120 150z" />
<glyph unicode="&#x404;" horiz-adv-x="1333" d="M80 714q0 -106 7 -194.5t27 -160.5t54.5 -130t88.5 -105q19 -15 51.5 -37t80.5 -41.5t113.5 -32.5t150.5 -13h601v211h-490q-17 0 -50.5 2t-72.5 7.5t-80.5 19t-72.5 35.5q-60 41 -100.5 122.5t-34.5 220.5h855v196h-855q0 79 28.5 160t74.5 128q48 46 123.5 69.5 t157.5 23.5h500v210h-584q-35 0 -85.5 -4.5t-107 -18t-116 -42t-109.5 -78.5q-54 -54 -85 -120t-46.5 -138.5t-19.5 -146.5t-4 -143z" />
<glyph unicode="&#x405;" d="M60 1065q0 -30 2.5 -64t10 -69t22 -69t37.5 -62q20 -27 46.5 -44.5t50.5 -31t43 -20t27 -8.5l554 -176q46 -13 73.5 -32.5t41 -40.5t18 -43t4.5 -41q0 -18 -3 -44.5t-16.5 -50.5t-39 -41t-74.5 -17h-779v-211h864q70 0 134 16t117 84q44 56 56.5 125.5t12.5 136.5 q0 24 -3 58t-11.5 71t-27 74t-50.5 67t-81 54t-120 47l-513 162q-85 28 -108 70t-23 89q0 19 5 51.5t32 56.5q24 23 53 28t56 5h719v210h-809q-52 0 -114 -13t-116 -65q-60 -56 -75.5 -126.5t-15.5 -135.5z" />
<glyph unicode="&#x406;" horiz-adv-x="505" d="M121 0h264v1405h-264v-1405z" />
<glyph unicode="&#x407;" horiz-adv-x="890" d="M121 1525h232v221h-232v-221zM313 0h265v1405h-265v-1405zM538 1525h232v221h-232v-221z" />
<glyph unicode="&#x408;" horiz-adv-x="892" d="M-40 0h359q65 0 117 12t93 31t72 43.5t54 45.5q15 16 36 44.5t39.5 71.5t30 103.5t11.5 140.5v913h-264v-843q0 -91 -16.5 -161t-74.5 -120q-51 -46 -116.5 -58t-109.5 -12h-231v-211z" />
<glyph unicode="&#x409;" horiz-adv-x="2373" d="M-20 0h299l696 1176q4 6 14.5 14.5t17.5 8.5q23 0 26 -14.5t3 -22.5v-949q0 -42 7 -81.5t39 -75.5q30 -34 62 -45t62 -11h747q65 0 111.5 14t81 33.5t54.5 40.5t30 34q22 31 35 67.5t19 76t8 76.5t2 68q0 128 -17 192t-35 93q-26 42 -62.5 66t-73.5 35.5t-72 14.5t-61 3 h-673v423q0 36 -8.5 69t-36 58t-77.5 41t-132 16q-62 0 -102 -10t-67.5 -25t-45 -35t-28.5 -41zM1300 297v323h546q65 0 91 -9t30 -13q19 -14 30.5 -35t16.5 -46t6 -51t1 -49v-38q0 -22 -4 -46t-14 -46t-30 -38q-16 -14 -40 -22t-48.5 -11t-43 -4t-25.5 -1h-427 q-23 0 -43.5 2t-33.5 20q-6 10 -9 29t-3 35z" />
<glyph unicode="&#x40a;" horiz-adv-x="2421" d="M121 0h264v618h711v-405q0 -42 7 -81.5t39 -75.5q30 -34 62.5 -45t59.5 -11h737q65 0 113 14t81 33.5t53 40.5t30 34q22 31 35.5 67.5t19 76t7.5 76.5t2 70q0 70 -7.5 142t-44.5 139q-13 26 -35 50.5t-53.5 44t-75.5 30.5t-105 11h-660v576h-265v-576h-711v576h-264 v-1405zM1361 297v321h531q39 0 70 -2t53 -18q19 -14 30.5 -35t16.5 -46t6 -51t1 -49q0 -34 -5 -85t-43 -83q-16 -14 -41 -22t-50 -11t-44 -4t-23 -1h-414h-42q-19 0 -34 22q-6 10 -9 29t-3 35z" />
<glyph unicode="&#x40b;" horiz-adv-x="1633" d="M-20 1195h343v-1195h265v624h556q26 0 55 -4t51 -24q27 -23 33 -49t6 -51v-496h264v534q0 52 -11.5 112.5t-76.5 112.5q-48 38 -100.5 45.5t-102.5 7.5h-674v383h590v210h-1198v-210z" />
<glyph unicode="&#x40c;" horiz-adv-x="1344" d="M0 0h265v1405h-265v-1405zM335 720q0 -28 17 -75t79 -105l578 -540h336l-665 592q-30 28 -60 61t-30 67q0 23 20 49t54 60l606 576h-326l-532 -526q-52 -52 -64.5 -94t-12.5 -65zM360 1634l117 -148l326 264l-121 150z" />
<glyph unicode="&#x40e;" horiz-adv-x="1452" d="M0 1405l600 -1094l-171 -311h287l737 1405h-289l-427 -851l-444 851h-293zM331 1744q16 -52 50.5 -112t85.5 -98q47 -35 113 -52t146 -17q161 0 258 69q46 32 82.5 88t55.5 122h-193q-8 -26 -23 -49t-33 -39q-34 -28 -70.5 -35t-76.5 -7q-38 0 -74 6t-72 36 q-24 20 -38 43t-21 45h-190z" />
<glyph unicode="&#x40f;" horiz-adv-x="1492" d="M121 169q0 -35 5.5 -67.5t40.5 -63.5q32 -28 67 -33t65 -5h315v-339h265v339h316q30 0 65 5t67 33q34 31 40 63.5t6 67.5v1236h-266v-1120q0 -14 1.5 -24t-10.5 -28q-14 -19 -25.5 -20.5t-28.5 -1.5h-594q-16 0 -29 1t-26 21q-8 14 -9 25t-1 27v1120h-264v-1236z" />
<glyph unicode="&#x410;" horiz-adv-x="1400" d="M-60 0h279l143 355h676l144 -355h279l-530 1262q-38 88 -89 123.5t-141 35.5q-94 0 -143.5 -35.5t-88.5 -123.5zM429 544l232 572q5 16 15 37t25 21q13 0 23.5 -21t16.5 -37l228 -572h-540z" />
<glyph unicode="&#x411;" horiz-adv-x="1454" d="M121 186q0 -30 5.5 -65t32.5 -65q19 -23 52.5 -39.5t87.5 -16.5h758q52 0 92.5 10t70 24t48.5 30t30 28q31 34 54 106t23 210q0 98 -16 175.5t-57 128.5q-28 35 -60 56t-65 31.5t-65 14t-58 3.5h-669v290q0 14 2 35.5t19 35.5q13 10 33.5 13.5t39.5 3.5h823v210h-991 q-56 0 -90.5 -17t-51.5 -36q-33 -34 -40.5 -74.5t-7.5 -77.5v-1014zM385 316v290h536q35 0 72 -5t64 -33q33 -30 39 -71t6 -81q0 -33 -4 -82t-39 -83q-30 -31 -66 -35.5t-72 -4.5h-425q-23 0 -53.5 2t-47.5 24q-4 4 -7 18t-3 61z" />
<glyph unicode="&#x412;" horiz-adv-x="1448" d="M121 199q0 -60 19 -95t29 -48q42 -48 90 -52t101 -4h672q32 0 65 1t65.5 10t64 27t62.5 52q59 69 69.5 147.5t10.5 147.5q0 31 -1 62.5t-7.5 65t-20 65t-38.5 58.5q-26 28 -64.5 49.5t-89.5 24.5v8q40 4 71 20.5t62 52.5q46 56 56 113t10 115q0 35 -3 75t-12 80t-26 78.5 t-48 68.5q-28 28 -60 45t-66 26t-67 11t-61 2h-691q-35 0 -75.5 -10t-72.5 -48q-23 -29 -33.5 -66.5t-10.5 -78.5v-1003zM385 316v288h538q65 0 98 -21t44 -37q20 -29 25.5 -71t5.5 -71q0 -35 -7 -75t-30 -68q-30 -37 -76 -43.5t-77 -6.5h-418q-16 0 -43.5 2t-42.5 20 q-8 10 -12.5 29t-4.5 54zM385 814v302q0 12 3 30t16 32q12 14 28 15.5t32 1.5h433q34 0 68.5 -4.5t62.5 -32.5q34 -32 40 -77t6 -74q0 -72 -11 -102t-19 -40q-29 -38 -67 -44.5t-77 -6.5h-515z" />
<glyph unicode="&#x413;" horiz-adv-x="1225" d="M121 0h264v1102q0 19 1 39.5t12 32.5q14 16 41.5 18.5t50.5 2.5h757v210h-940q-46 0 -81 -16t-57 -39q-35 -34 -41.5 -70.5t-6.5 -77.5v-1202z" />
<glyph unicode="&#x414;" horiz-adv-x="1591" d="M-20 0h1632v211h-118l-473 1061q-34 76 -82 112.5t-142 36.5q-54 0 -90.5 -12.5t-62.5 -32.5t-42 -47t-30 -57l-474 -1061h-118v-211zM369 211l393 911q4 10 13.5 27t21.5 17q11 0 19.5 -17t12.5 -27l393 -911h-853z" />
<glyph unicode="&#x415;" horiz-adv-x="1306" d="M121 209q0 -40 7.5 -85.5t43.5 -79.5q35 -34 75 -39t86 -5h914v211h-751q-32 0 -55.5 3t-34.5 14q-20 16 -21 55v329h833v211h-833v282q0 16 3 34.5t20 34.5q15 14 34.5 17.5t36.5 3.5h760v210h-902q-40 0 -87 -8t-81 -47q-23 -26 -35.5 -64.5t-12.5 -81.5v-995z" />
<glyph unicode="&#x416;" horiz-adv-x="2143" d="M-40 0h337l478 536q65 73 78.5 122t13.5 64q0 50 -25 92.5t-47 68.5l-442 522h-321l516 -576q22 -22 40 -47t18 -58q0 -38 -26 -74t-48 -58zM939 0h265v1405h-265v-1405zM1277 722q0 -58 32 -106t60 -80l477 -536h337l-571 592q-22 22 -48 58t-26 74q0 33 18 58t39 47 l516 576h-321l-442 -522q-22 -28 -46.5 -69.5t-24.5 -91.5z" />
<glyph unicode="&#x417;" horiz-adv-x="1333" d="M100 0h727q73 0 157 9t144 47q44 28 69 67.5t38.5 82.5t16 87t2.5 82q0 87 -9.5 141t-30.5 88q-28 48 -77 74.5t-107 30.5v7q69 16 118 63q55 52 67.5 115t12.5 132q0 78 -14 155t-72 138q-35 32 -71.5 50t-75 26t-76.5 9t-72 1h-738v-210h678q32 0 64 -4.5t58 -26.5 q37 -30 42 -74t5 -85q0 -32 -4 -75t-31 -71q-22 -24 -69 -34.5t-115 -10.5h-609v-210h642q85 0 118 -15t43 -23q36 -32 43 -78t7 -80q0 -23 -2 -47t-8 -47t-20 -43t-38 -34q-15 -10 -39.5 -15t-49.5 -7t-47 -3t-30 -1h-647v-211z" />
<glyph unicode="&#x418;" horiz-adv-x="1576" d="M121 224q0 -30 3.5 -70.5t23 -79t61.5 -64.5t118 -26q54 0 90.5 12t60.5 31t41 42t31 48l578 933q16 24 28 44t24 20q14 0 17 -15t3 -31l-7 -1068h264v1168q0 27 -4 70t-24 83t-64 70t-122 30q-73 0 -126.5 -32.5t-109.5 -124.5l-565 -927q-10 -16 -18 -30t-20 -14 q-20 0 -22.5 20t-2.5 45l6 1047h-264v-1181z" />
<glyph unicode="&#x419;" horiz-adv-x="1576" d="M121 224q0 -30 3.5 -70.5t23 -79t61.5 -64.5t118 -26q54 0 90.5 12t60.5 31t41 42t31 48l578 933q16 24 28 44t24 20q14 0 17 -15t3 -31l-7 -1068h264v1168q0 27 -4 70t-24 83t-64 70t-122 30q-73 0 -126.5 -32.5t-109.5 -124.5l-565 -927q-10 -16 -18 -30t-20 -14 q-20 0 -22.5 20t-2.5 45l6 1047h-264v-1181zM389 1724q16 -52 50 -112.5t87 -98.5q46 -34 112.5 -50.5t144.5 -16.5q65 0 136 13.5t123 53.5q52 38 86 98.5t50 112.5h-190q-8 -27 -23 -49.5t-34 -38.5q-34 -29 -73 -36t-75 -7q-34 0 -73.5 7t-73.5 36q-18 15 -33 38.5 t-23 49.5h-191z" />
<glyph unicode="&#x41a;" horiz-adv-x="1404" d="M121 0h264v1405h-264v-1405zM456 720q0 -28 17 -75t79 -105l578 -540h335l-664 592q-31 28 -61 61t-30 67q0 23 20.5 49t54.5 60l606 576h-328l-531 -526q-52 -52 -64 -94t-12 -65z" />
<glyph unicode="&#x41b;" horiz-adv-x="1394" d="M-60 0h280l444 1122q4 12 11 26t24 14q15 0 21 -13t10 -27l444 -1122h281l-542 1289q-9 24 -23.5 48t-38.5 41.5t-60 30t-92 12.5t-92.5 -12.5t-61 -30t-38 -42t-23.5 -47.5z" />
<glyph unicode="&#x41c;" horiz-adv-x="1990" d="M121 0h264l-6 1094q0 4 3 23t20 19q10 0 19.5 -17t13.5 -29l360 -937q17 -50 36.5 -82.5t41.5 -51.5t52.5 -27t70.5 -8q44 0 74 9t52 28t39 51t36 81l358 937q4 12 14.5 29t20.5 17q5 0 14.5 -7t9.5 -35l-9 -1094h266v1237q0 96 -64.5 140t-163.5 44q-38 0 -72.5 -6 t-66 -25t-58.5 -55.5t-50 -93.5l-362 -938q-10 -23 -19.5 -37.5t-18.5 -14.5q-10 0 -19.5 15t-19.5 37l-363 938q-23 57 -50 93.5t-57.5 55.5t-66 25t-73.5 6q-16 0 -53 -3t-75.5 -21t-68 -55.5t-29.5 -104.5v-1237z" />
<glyph unicode="&#x41d;" horiz-adv-x="1500" d="M121 0h264v618h731v-618h265v1405h-265v-576h-731v576h-264v-1405z" />
<glyph unicode="&#x41e;" horiz-adv-x="1601" d="M80 703q0 -60 3 -134.5t18.5 -152t48 -151.5t93.5 -133q58 -56 129.5 -86t146.5 -44t148.5 -16t135.5 -2q59 0 132.5 2t150 16t148.5 44t129 86q56 56 88 131.5t48 154t19 153.5t3 132q0 68 -5 146t-21 154.5t-47 146.5t-85 122q-58 56 -129.5 86.5t-147 44.5t-150 16 t-133.5 2q-65 0 -138 -2t-147 -16t-145.5 -44t-129.5 -87q-58 -54 -90 -123t-48.5 -144.5t-20.5 -152.5t-4 -149zM353 703q0 160 24.5 248.5t66.5 140.5q34 42 77 66t90.5 36t95.5 14t94 2q44 0 92.5 -2t96.5 -14t92 -36t78 -66q40 -52 64.5 -141.5t24.5 -247.5 q0 -157 -24.5 -247t-64.5 -140q-34 -45 -77 -69.5t-91 -36t-97.5 -13.5t-93.5 -2q-121 0 -208 20t-149 101q-44 55 -67.5 145.5t-23.5 241.5z" />
<glyph unicode="&#x41f;" horiz-adv-x="1490" d="M121 0h264v1110q0 18 4 37t15 29q13 16 30.5 17.5t32.5 1.5h559q14 0 32 -1t32 -18q13 -14 14 -32t1 -34v-1110h266v1214q0 36 -9.5 72.5t-40.5 67.5q-36 37 -76.5 44t-82.5 7h-831q-48 0 -84 -7t-75 -44q-34 -34 -42.5 -68t-8.5 -72v-1214z" />
<glyph unicode="&#x420;" horiz-adv-x="1460" d="M121 0h264v498h659q61 0 117.5 18t96.5 50q42 35 66 83t36.5 101t16.5 106t4 96q0 44 -3 94t-14.5 100.5t-32.5 95.5t-57 79q-32 32 -69 49t-74 25t-72.5 9t-62.5 1h-669q-36 0 -80 -10t-78 -45q-37 -36 -42.5 -75.5t-5.5 -79.5v-1195zM385 709v401q0 18 2 35t17 31 q15 16 31.5 17.5t30.5 1.5h427q34 0 82 -7.5t82 -41.5q35 -35 42.5 -90.5t7.5 -101.5q0 -20 -1 -46.5t-5.5 -52.5t-13.5 -51t-26 -44q-34 -40 -81 -45.5t-91 -5.5h-504z" />
<glyph unicode="&#x421;" d="M80 682q0 -58 4 -125t18.5 -135.5t42 -135t77.5 -121.5q48 -54 105.5 -87.5t117 -50.5t117.5 -22t108 -5h592v211h-475q-125 0 -219.5 26t-148.5 108q-9 16 -21.5 42.5t-22 66.5t-16 97.5t-6.5 134.5q0 157 23.5 244t54.5 133q31 44 70 70.5t86 40.5t101.5 17.5 t112.5 3.5h440v210h-565q-38 0 -94 -4.5t-120 -22t-128.5 -52.5t-116.5 -98q-45 -52 -71.5 -115t-41 -134.5t-19.5 -146.5t-5 -150z" />
<glyph unicode="&#x422;" d="M-20 1195h548v-1195h265v1195h550v210h-1363v-210z" />
<glyph unicode="&#x423;" horiz-adv-x="1372" d="M-40 1405l600 -1094l-171 -311h287l737 1405h-289l-427 -851l-444 851h-293z" />
<glyph unicode="&#x424;" horiz-adv-x="1869" d="M80 720q0 -108 14.5 -218.5t66.5 -198.5q64 -102 163 -134.5t230 -32.5h249v-136h265v136h248q130 0 229.5 32.5t164.5 134.5q52 88 66 198.5t14 218.5q0 113 -16 220.5t-78 197.5q-66 94 -167.5 123.5t-262.5 29.5h-198v114h-265v-114h-201q-81 0 -145 -6t-116 -23 t-93 -46.5t-74 -77.5q-61 -90 -77.5 -197.5t-16.5 -220.5zM353 720q0 58 4.5 99.5t9 70.5t10.5 46.5t12 26.5q20 39 49 62t63.5 35t72 16t72.5 4h157v-733h-119q-40 0 -83 3t-85.5 15t-77 38t-55.5 74q-10 23 -20 74t-10 169zM1068 347v733h156q76 0 145.5 -20t109.5 -97 q19 -38 28.5 -93.5t9.5 -149.5q0 -107 -8 -159.5t-21 -83.5q-23 -48 -57.5 -74t-76.5 -38t-86 -15t-82 -3h-118z" />
<glyph unicode="&#x425;" horiz-adv-x="1296" d="M-40 0h313l376 526l374 -526h314l-538 712l522 693h-314l-358 -505l-360 505h-313l522 -693z" />
<glyph unicode="&#x426;" horiz-adv-x="1542" d="M121 205q0 -40 9.5 -85.5t49.5 -79.5q37 -30 79 -35t86 -5h1218v211h-192v1194h-266v-1194h-630q-15 0 -39 3t-38 19t-13.5 42t0.5 46v1084h-264v-1200z" />
<glyph unicode="&#x427;" horiz-adv-x="1436" d="M100 948q0 -71 11 -125.5t46 -102.5q30 -44 68 -68t74 -36t65 -15t44 -3h644v-598h264v1405h-264v-597h-500q-31 0 -77 7.5t-73 35.5q-29 28 -32.5 66.5t-3.5 78.5v409h-266v-457z" />
<glyph unicode="&#x428;" horiz-adv-x="2095" d="M121 178q0 -34 5.5 -67t40.5 -65q32 -30 67.5 -38t68.5 -8h1489q20 0 62 6t77 40q32 32 38 71.5t6 60.5v1227h-265v-1106q0 -16 -1 -33t-11 -33q-11 -15 -27.5 -18.5t-32.5 -3.5h-458v1194h-265v-1194h-455q-16 0 -33 3t-29 19q-10 16 -11.5 33t-1.5 33v1106h-264v-1227z " />
<glyph unicode="&#x429;" horiz-adv-x="2147" d="M121 178q0 -30 7.5 -66t38.5 -66q30 -30 66.5 -38t69.5 -8h1865v211h-193v1194h-265v-1194h-530v1194h-265v-1194h-457q-16 0 -32 3t-28 19q-10 16 -11.5 33t-1.5 33v1106h-264v-1227z" />
<glyph unicode="&#x42a;" horiz-adv-x="1589" d="M-20 1195h194q43 0 61 -23q4 -6 10 -22t6 -52v-885q0 -41 8 -82t36 -75q12 -14 42.5 -35t83.5 -21h747q65 0 112 14t81 33.5t54 40.5t31 34q3 6 13 24.5t21.5 53.5t20 88t8.5 128q0 74 -11.5 150t-40.5 129q-26 48 -63.5 74t-76 40t-75 17t-60.5 3h-667v373 q0 58 -14.5 94.5t-31.5 53.5q-34 39 -77 47t-67 8h-345v-210zM515 297v321h531q36 0 71 -2t63 -24q40 -30 48.5 -76.5t8.5 -92.5q0 -44 -6.5 -93t-44.5 -81q-16 -14 -40 -22t-46 -11t-41 -4t-27 -1h-428q-23 0 -43.5 3t-32.5 19q-10 12 -11.5 33t-1.5 31z" />
<glyph unicode="&#x42b;" horiz-adv-x="1915" d="M121 213q0 -41 7.5 -82t36.5 -75q11 -14 41.5 -35t84.5 -21h747q64 0 111.5 14t81 33.5t53.5 40.5t30 34q4 6 14.5 24.5t21.5 53.5t20 88t9 128q0 74 -12.5 150t-39.5 129q-27 48 -64 74t-76 40t-75 17t-60 3h-667v576h-264v-1192zM385 297v321h530q37 0 71.5 -2 t63.5 -24q40 -30 47.5 -76.5t7.5 -92.5q0 -44 -5.5 -93t-44.5 -81q-15 -14 -39 -22t-46 -11t-41.5 -4t-26.5 -1h-429q-22 0 -42.5 3t-32.5 19q-10 12 -11.5 33t-1.5 31zM1532 0h264v1405h-264v-1405z" />
<glyph unicode="&#x42c;" horiz-adv-x="1458" d="M121 213q0 -41 7.5 -82t36.5 -75q11 -14 41.5 -35t84.5 -21h747q64 0 111.5 14t81 33.5t53.5 40.5t30 34q4 6 14.5 24.5t21.5 53.5t20 88t9 128q0 74 -12.5 150t-39.5 129q-27 48 -64 74t-76 40t-75 17t-60 3h-667v576h-264v-1192zM385 297v321h530q37 0 71.5 -2 t63.5 -24q40 -30 47.5 -76.5t7.5 -92.5q0 -44 -5.5 -93t-44.5 -81q-15 -14 -39 -22t-46 -11t-41.5 -4t-26.5 -1h-429q-22 0 -42.5 3t-32.5 19q-10 12 -11.5 33t-1.5 31z" />
<glyph unicode="&#x42d;" horiz-adv-x="1335" d="M80 0h602q42 0 91.5 5t102.5 18t105.5 37t98.5 64q107 93 141.5 237.5t34.5 352.5q0 73 -3.5 147t-20 145.5t-47.5 136.5t-83 117q-52 50 -110.5 79.5t-115.5 43t-108.5 18t-85.5 4.5h-582v-210h498q100 0 169.5 -28.5t111.5 -68.5q58 -58 79 -131.5t26 -147.5h-856v-210 h856q-2 -119 -28.5 -197.5t-106.5 -132.5q-48 -34 -113.5 -51t-163.5 -17h-492v-211z" />
<glyph unicode="&#x42e;" horiz-adv-x="2082" d="M121 0h264v612h177q-2 -59 6 -126t28 -131t51 -122.5t75 -100.5q58 -56 129.5 -86t147 -44t148.5 -16t136 -2q62 0 135.5 2t148.5 16t146.5 44t128.5 86q56 54 88.5 123.5t48.5 144.5t20 153.5t4 149.5q0 182 -30.5 328.5t-130.5 240.5q-59 56 -129.5 86.5t-144.5 44.5 t-147.5 16t-137.5 2q-65 0 -138 -2t-147.5 -16t-145.5 -44t-130 -87q-42 -40 -73 -93t-50 -112.5t-28 -122.5t-9 -121h-177v582h-264v-1405zM835 703q0 158 24 247.5t64 141.5q34 42 77.5 66t91.5 36t96.5 14t94.5 2t94 -2t95 -14t90 -36t78 -66q42 -52 66 -140.5t24 -248.5 q0 -151 -23 -241.5t-67 -145.5q-62 -81 -150.5 -101t-206.5 -20q-54 0 -105.5 3t-97.5 14.5t-85 36t-72 67.5q-40 52 -64 141t-24 246z" />
<glyph unicode="&#x42f;" horiz-adv-x="1482" d="M60 0h342l469 460q40 40 50 71t10 51v32q0 33 -14.5 49.5t-35 25t-40.5 10.5t-31 2h-276q-48 0 -82.5 21t-49.5 48q-16 25 -22.5 67t-6.5 117q0 51 7 104.5t41 89.5q33 34 69 40.5t68 6.5h442q19 0 36.5 -3.5t33.5 -19.5q18 -16 23 -35t5 -35v-1102h265v1184q0 48 -8 87 t-49 77q-38 37 -79 47t-75 10h-688q-91 0 -167.5 -22t-129.5 -106q-25 -38 -38.5 -79.5t-20 -82.5t-7.5 -80t-1 -74q0 -88 10.5 -174t52.5 -159q36 -62 98 -100t147 -38h182v-8z" />
<glyph unicode="&#x430;" horiz-adv-x="1113" d="M52 341q0 -30 2 -68t11 -78t28.5 -77.5t50.5 -65.5q46 -40 97.5 -46t95.5 -6h508q38 0 78 7t69 35q28 29 35 69t7 67v552q0 90 -22 154t-56 97q-37 38 -95 60t-126 22h-605v-180h525q28 0 59 -8t54 -38q20 -25 25.5 -51t5.5 -49v-75h-462q-42 0 -93 -9t-102 -53 q-60 -52 -75 -120t-15 -139zM295 331q0 58 10.5 82t15.5 33q20 26 47 31t40 5h391v-245q0 -12 -2 -23t-14 -21t-27 -11.5t-26 -1.5h-326q-23 0 -44 10.5t-33 22.5q-22 22 -27 58t-5 60z" />
<glyph unicode="&#x431;" horiz-adv-x="1151" d="M80 435q0 -70 7 -138.5t47 -137.5q38 -65 92.5 -99t115 -50t123.5 -19t119 -3q60 0 121 3t120.5 18t111 47t89.5 93q28 42 43 93t22 101t8 96.5t1 81.5q0 87 -11 178.5t-59 163.5q-40 62 -125.5 109t-232.5 47h-356q-2 46 14.5 89t40.5 64q43 38 101 45t102 7h464v181 h-572q-75 0 -130 -16t-94 -41t-64 -53.5t-40 -51.5q-38 -65 -48 -133t-10 -120v-555zM316 414v425h304q83 0 125 -29t58 -50q26 -34 40 -92.5t14 -161.5q0 -33 -2 -70.5t-9 -75t-22.5 -70.5t-38.5 -57q-34 -32 -92.5 -48t-112.5 -16q-74 0 -127 21t-84 55q-22 25 -37.5 65.5 t-15.5 103.5z" />
<glyph unicode="&#x432;" horiz-adv-x="1105" d="M80 157q0 -27 6 -61t35 -58q28 -26 66.5 -32t73.5 -6h505q46 0 106.5 9t108.5 58q26 26 40.5 58t21.5 63.5t9 61t2 51.5q0 42 -7 89t-40 87q-17 23 -51.5 44t-80.5 27v4q40 4 72 21t55 41q32 37 40 86t8 91q0 38 -8 94.5t-48 102.5q-25 28 -56 43t-63 22.5t-64 8.5t-58 1 h-483q-34 0 -70.5 -6.5t-71.5 -35.5q-34 -28 -41 -62t-7 -62v-740zM316 245v215h366q20 0 49 -5t52 -30q20 -22 23.5 -49t3.5 -51q0 -26 -4.5 -58t-26.5 -54q-22 -23 -52 -28t-57 -5h-293q-13 0 -26.5 2t-23.5 15q-6 10 -8.5 23t-2.5 25zM316 640v191q0 10 1.5 20t11.5 20 t22.5 11t21.5 1h309q25 0 49 -4t44 -22q23 -20 27.5 -46t4.5 -51q0 -22 -5 -44.5t-25 -43.5q-22 -22 -49 -27t-50 -5h-362z" />
<glyph unicode="&#x433;" horiz-adv-x="929" d="M80 0h236v799q0 19 1 34.5t14 29.5q8 8 20.5 14t27.5 6h590v180h-741q-34 0 -68 -8.5t-58 -47.5q-16 -26 -19 -56t-3 -62v-889z" />
<glyph unicode="&#x434;" horiz-adv-x="1157" d="M-20 0h1198v180h-94l-333 791q-16 40 -51.5 72.5t-119.5 32.5q-82 0 -118.5 -30.5t-53.5 -74.5l-332 -791h-96v-180zM305 180l253 661q4 10 10 19t12 9q10 0 13 -10t7 -18l255 -661h-550z" />
<glyph unicode="&#x435;" horiz-adv-x="1129" d="M52 521q0 -106 12 -208t64 -179q33 -46 73 -73t82 -41t86.5 -17t84.5 -3h590v180h-520q-32 0 -65.5 4.5t-63 17.5t-52 38t-34.5 67q-6 24 -10 68t-4 79h618q33 0 62 7.5t53 32.5q34 34 42 77t8 84q0 50 -6.5 99t-23 94t-46 83t-75.5 69q-74 46 -165.5 57t-185.5 11 q-38 0 -88.5 -2.5t-104.5 -11t-107.5 -29t-97.5 -58.5t-69 -84t-38 -101.5t-16 -120.5t-3 -140zM295 634q2 52 7 97.5t41 85.5q25 27 53.5 41.5t59 20.5t58.5 7t52 1q50 0 103 -7t97 -41q27 -20 48 -56t21 -86q0 -23 -9 -43t-43 -20h-488z" />
<glyph unicode="&#x436;" horiz-adv-x="1615" d="M-40 0h277l347 421q20 23 41 54t21 67q0 34 -23 72.5t-51 71.5l-303 377h-273l366 -435q11 -14 27.5 -39t16.5 -39q0 -16 -17.5 -42t-26.5 -41zM695 0h226v1063h-226v-1063zM969 542q0 -36 21 -67t42 -54l347 -421h277l-402 467q-11 14 -27.5 40.5t-16.5 42.5q0 8 7 26 t37 52l364 435h-273l-301 -377q-29 -34 -52 -72t-23 -72z" />
<glyph unicode="&#x437;" horiz-adv-x="1063" d="M80 0h629q51 0 107.5 9t104.5 53q31 28 57 84.5t26 150.5q0 74 -16.5 118.5t-37.5 68.5q-18 23 -47.5 40.5t-73.5 21.5v6q42 4 72 22t49 40q17 23 32.5 64.5t15.5 114.5q0 48 -13.5 105.5t-57.5 99.5q-46 46 -104.5 55.5t-115.5 9.5h-607v-180h518q14 0 45.5 -4t54.5 -24 q14 -12 25.5 -34t11.5 -61q0 -38 -11 -60t-24 -34q-22 -22 -44.5 -25t-51.5 -3h-513v-180h505q18 0 47.5 -4t52.5 -23q31 -22 37.5 -50t6.5 -56q0 -46 -10.5 -73.5t-25.5 -40.5q-22 -23 -51 -27t-59 -4h-534v-180z" />
<glyph unicode="&#x438;" horiz-adv-x="1201" d="M80 138q0 -22 5 -47.5t21 -48t46 -38.5t83 -16q60 0 92.5 21t59.5 64l468 684q11 17 17.5 22.5t10.5 5.5q12 0 12 -8v-20l-8 -757h235v913q0 60 -20 92.5t-45 48.5t-51.5 19t-38.5 3q-36 0 -74 -13t-70 -59l-474 -697q-6 -10 -12 -19t-16 -9q-11 0 -13.5 7t-2.5 21 l11 756h-236v-925z" />
<glyph unicode="&#x439;" horiz-adv-x="1201" d="M80 138q0 -22 5 -47.5t21 -48t46 -38.5t83 -16q60 0 92.5 21t59.5 64l468 684q11 17 17.5 22.5t10.5 5.5q12 0 12 -8v-20l-8 -757h235v913q0 60 -20 92.5t-45 48.5t-51.5 19t-38.5 3q-36 0 -74 -13t-70 -59l-474 -697q-6 -10 -12 -19t-16 -9q-11 0 -13.5 7t-2.5 21 l11 756h-236v-925zM233 1391q16 -58 47 -114.5t67 -88.5q58 -52 130.5 -65t126.5 -13t126.5 13t130.5 65q37 32 67.5 88.5t46.5 114.5h-182q-6 -20 -20 -45t-30 -42q-31 -30 -68 -39t-71 -9q-35 0 -71.5 9t-66.5 39q-16 16 -30.5 41.5t-19.5 45.5h-183z" />
<glyph unicode="&#x43a;" horiz-adv-x="1030" d="M80 0h236v1063h-236v-1063zM362 548q0 -40 21 -72t38 -53l387 -423h284l-454 473q-12 12 -25 35.5t-13 39.5q0 26 18 49t33 37l403 429h-279l-340 -377q-22 -26 -47.5 -62t-25.5 -76z" />
<glyph unicode="&#x43b;" horiz-adv-x="1135" d="M-20 0h240l328 821q4 8 8 19t12 11t12 -11t8 -19l327 -821h241l-432 988q-22 46 -65 67t-91 21t-91.5 -21t-64.5 -67z" />
<glyph unicode="&#x43c;" horiz-adv-x="1484" d="M80 0h236l-11 770q0 4 1 11.5t12 7.5q5 0 9 -9.5t6 -13.5l273 -690q11 -32 41.5 -60t95.5 -28t94.5 28t41.5 60l272 690q3 6 8 15.5t9 9.5t8 -5t4 -16l-10 -770h235v923q0 79 -55 116t-128 37q-67 0 -110.5 -25t-69.5 -90l-270 -676l-12.5 -25t-16.5 -17t-17.5 17 t-13.5 25l-268 676q-27 65 -71 90t-110 25q-73 0 -128 -37t-55 -116v-923z" />
<glyph unicode="&#x43d;" horiz-adv-x="1137" d="M80 0h236v458h507v-458h234v1063h-234v-425h-507v425h-236v-1063z" />
<glyph unicode="&#x43e;" horiz-adv-x="1235" d="M52 528q0 -40 4 -95.5t17 -114.5t40 -115t76 -101q44 -40 98 -63t112.5 -34t114.5 -14t104 -3q46 0 102.5 3t115.5 14t114 34t98 63q57 56 96.5 160t39.5 274q0 42 -4 98.5t-18 114.5t-41 115t-73 99q-44 41 -98.5 64t-112.5 34t-114.5 13t-104.5 2t-104 -2t-114.5 -13 t-112.5 -34t-98 -64q-46 -42 -73.5 -99t-41.5 -116.5t-18 -117.5t-4 -102zM295 530q0 27 1 62.5t7 75t20 77.5t39 65q24 29 57 46t66.5 26t69 11t63.5 2q33 0 66.5 -2t67 -11t64.5 -26t57 -46q29 -30 42.5 -66.5t20 -75t6.5 -74.5v-64q0 -70 -9.5 -142t-61.5 -131 q-52 -58 -119.5 -73t-133.5 -15q-64 0 -133 15t-121 73q-50 58 -59.5 132.5t-9.5 140.5z" />
<glyph unicode="&#x43f;" horiz-adv-x="1139" d="M80 0h236v821q0 14 3.5 28t11.5 22q12 12 40 12h397q10 0 22.5 -3t19.5 -9q10 -10 12.5 -25t2.5 -25v-821h234v887q0 34 -4.5 65.5t-28.5 58.5q-30 37 -68.5 44.5t-78.5 7.5h-618q-35 0 -72.5 -5.5t-71.5 -46.5q-29 -34 -33 -65t-4 -59v-887z" />
<glyph unicode="&#x440;" horiz-adv-x="1121" d="M80 -341h236v341h296q41 0 90 3t100 18t98.5 46t85.5 86q28 40 45 88t25.5 100t11 106.5t2.5 106.5q0 44 -2.5 95.5t-13 103.5t-33.5 102.5t-64 92.5q-38 40 -82 63t-87 34.5t-80.5 14.5t-63.5 3h-371q-30 0 -66 -5.5t-67 -27.5q-19 -16 -39.5 -47t-20.5 -83v-1241z M316 180v653q0 20 15 36q6 4 15 9t18 5h230q78 0 130.5 -34.5t74.5 -86.5q9 -22 18.5 -71t9.5 -157q0 -118 -14 -174.5t-30 -80.5q-20 -32 -66.5 -65.5t-134.5 -33.5h-266z" />
<glyph unicode="&#x441;" horiz-adv-x="1029" d="M52 517q0 -114 15 -211t82 -176q36 -42 78.5 -68t85 -40t82.5 -18t71 -4h511v180h-381q-36 0 -75 3t-75 15.5t-66.5 34.5t-50.5 60q-10 20 -17 49t-11 59t-5 59.5t-1 53.5q0 11 1 36.5t2 54.5t5 58.5t10 50.5q19 69 81 119t180 50h380v180h-456q-73 0 -126 -11.5t-92 -29 t-65 -37.5t-43 -35q-44 -46 -68 -101.5t-36 -113t-14 -113.5t-2 -105z" />
<glyph unicode="&#x442;" horiz-adv-x="1032" d="M0 883h400v-883h234v883h400v180h-1034v-180z" />
<glyph unicode="&#x443;" horiz-adv-x="1145" d="M-20 1063l474 -1059l-163 -345h239l636 1404h-239l-359 -806l-340 806h-248z" />
<glyph unicode="&#x444;" horiz-adv-x="1615" d="M52 519q0 -100 15 -198.5t73 -176.5q38 -52 82.5 -81t90 -43t89.5 -17t80 -3h209v-341h234v341h209q38 0 82 3t89 17t88.5 43t81.5 81q60 84 74 176t14 199q0 91 -9 189.5t-64 188.5q-35 54 -77 87t-88 50.5t-93.5 23t-89.5 5.5h-217v342h-234v-342h-218q-42 0 -88 -5.5 t-93 -23t-90 -50t-76 -87.5q-26 -42 -40.5 -91t-22 -98t-9.5 -97.5t-2 -91.5zM295 517q0 117 12 181t38 101q23 30 51.5 46t59 25t60.5 11t54 2h121v-703h-117q-96 0 -151 21t-86 74q-30 50 -36 112.5t-6 129.5zM925 180v703h121q24 0 55 -2t61.5 -11t58.5 -25t49 -46 q30 -42 40.5 -111.5t10.5 -170.5q0 -68 -6.5 -130t-35.5 -112q-30 -52 -85.5 -73.5t-151.5 -21.5h-117z" />
<glyph unicode="&#x445;" horiz-adv-x="1047" d="M-20 0h277l267 393l267 -393h277l-407 546l381 517h-270l-248 -364l-249 364h-269l383 -517z" />
<glyph unicode="&#x446;" horiz-adv-x="1185" d="M80 149q0 -30 6 -58.5t38 -56.5q29 -24 59 -29t58 -5h965v180h-151v883h-234v-883h-426q-12 0 -32 2t-32 15q-10 10 -12.5 27t-2.5 33v806h-236v-914z" />
<glyph unicode="&#x447;" horiz-adv-x="1113" d="M60 747q0 -48 8 -107.5t43 -105.5q22 -30 50 -47.5t57 -26t58 -11.5t53 -3h470v-446h235v1063h-235v-437h-355q-32 0 -68.5 8t-59.5 44q-16 27 -18.5 58.5t-2.5 60.5v266h-235v-316z" />
<glyph unicode="&#x448;" horiz-adv-x="1643" d="M80 161q0 -35 6 -64.5t33 -56.5q30 -30 68.5 -35t79.5 -5h1110q40 0 77.5 5t70.5 35q28 29 33 56.5t5 64.5v902h-234v-812q0 -14 -1 -28t-9 -24q-10 -12 -22 -15.5t-23 -3.5h-335v883h-234v-883h-334q-9 0 -22.5 3t-23.5 16q-7 10 -8 24t-1 28v812h-236v-902z" />
<glyph unicode="&#x449;" horiz-adv-x="1715" d="M80 161q0 -29 5 -61.5t34 -61.5q32 -32 69.5 -35t78.5 -3h1449v180h-153v883h-234v-883h-390v883h-234v-883h-336q-13 0 -24.5 2t-21.5 17q-7 10 -7 52v812h-236v-902z" />
<glyph unicode="&#x44a;" horiz-adv-x="1231" d="M0 883h136q14 0 27 -2t23 -16q8 -9 9.5 -23.5t1.5 -27.5v-651q0 -33 5 -64.5t35 -60.5q29 -28 59.5 -33t58.5 -5h540q50 0 104.5 8t100.5 48q28 26 44 60.5t24 70t10 71t2 61.5q0 65 -11 135t-59 126q-44 50 -96.5 65.5t-102.5 15.5h-480v252q0 23 -7 57.5t-35 61.5 q-18 16 -44 23.5t-48 7.5h-297v-180zM431 255v224h381q20 0 47.5 -5t49.5 -28q23 -25 25.5 -58t2.5 -55q0 -28 -4 -62t-24 -56q-22 -25 -50 -30t-54 -5h-307q-14 0 -28 3t-24 14q-12 12 -13.5 29t-1.5 29z" />
<glyph unicode="&#x44b;" horiz-adv-x="1505" d="M80 163q0 -33 5 -64.5t36 -60.5q28 -28 59 -33t59 -5h540q50 0 104 8t101 48q28 26 44 60.5t23.5 70t9.5 71t2 61.5q0 65 -10.5 135t-58.5 126q-44 50 -96.5 65.5t-102.5 15.5h-479v402h-236v-900zM316 255v224h381q19 0 46 -5t50 -28q22 -25 25 -58t3 -55 q0 -28 -4.5 -62t-23.5 -56q-23 -25 -51 -30t-54 -5h-307q-13 0 -27.5 3t-24.5 14q-11 12 -12 29t-1 29zM1190 0h235v1063h-235v-1063z" />
<glyph unicode="&#x44c;" horiz-adv-x="1115" d="M80 163q0 -33 5 -64.5t36 -60.5q28 -28 59 -33t59 -5h540q50 0 104 8t101 48q28 26 44 60.5t23.5 70t9.5 71t2 61.5q0 65 -10.5 135t-58.5 126q-44 50 -96.5 65.5t-102.5 15.5h-479v402h-236v-900zM316 255v224h381q19 0 46 -5t50 -28q22 -25 25 -58t3 -55 q0 -28 -4.5 -62t-23.5 -56q-23 -25 -51 -30t-54 -5h-307q-13 0 -27.5 3t-24.5 14q-11 12 -12 29t-1 29z" />
<glyph unicode="&#x44d;" horiz-adv-x="1047" d="M52 0h480q54 0 106.5 4t99.5 18t88 40t76 70q46 62 70 162.5t24 257.5q0 149 -25 244t-78 154q-18 19 -43 39t-62 36.5t-85 27t-111 10.5h-525v-180h406q23 0 53 -2t62 -10t63 -23t54 -41q26 -33 38 -78t10 -83h-673v-180h675q0 -43 -8 -92t-25 -81q-32 -62 -97 -87.5 t-156 -25.5h-417v-180z" />
<glyph unicode="&#x44e;" horiz-adv-x="1639" d="M80 0h236v458h155q-2 -33 1 -77t17.5 -92t40.5 -97.5t72 -89.5q44 -40 96.5 -63t108.5 -34t112 -14t109 -3q48 0 105 3t115 14t111.5 34t95.5 63q65 62 99 175.5t34 264.5q0 165 -38.5 268t-94.5 155q-42 39 -95.5 62t-110 33t-115 13t-106.5 3q-52 0 -108.5 -3 t-112.5 -13t-108.5 -33t-96.5 -62q-73 -64 -100 -150.5t-31 -176.5h-155v425h-236v-1063zM714 519q0 33 2 73t8 80t17.5 76.5t28.5 59.5q25 33 58 50t69 25t70.5 10t60.5 2t60 -2t70.5 -10t70 -25t58.5 -50q6 -7 15.5 -25.5t19 -49t16.5 -80t7 -117.5q0 -70 -7 -118.5 t-16.5 -80.5t-19 -50t-17.5 -28q-25 -33 -57.5 -50.5t-67 -27t-70 -11t-62.5 -1.5q-30 0 -64.5 1.5t-69.5 11t-66 27t-56 50.5q-24 32 -41 91t-17 169z" />
<glyph unicode="&#x44f;" horiz-adv-x="1139" d="M40 0h276l330 377q16 18 28 43.5t12 65.5q0 32 -12 50t-29 27t-34 11t-27 2h-142q-30 0 -56 5t-47 33q-10 16 -15.5 42t-5.5 79q0 28 3.5 59t21.5 53q14 15 38.5 25.5t51.5 10.5h308q16 0 36 -2t31 -14q12 -11 14.5 -35.5t2.5 -30.5v-801h234v869q0 27 -6.5 75t-43.5 82 q-30 28 -67.5 32.5t-64.5 4.5h-542q-66 0 -110.5 -20t-71.5 -47q-52 -52 -65.5 -121.5t-13.5 -127.5q0 -54 10 -126.5t50 -126.5q23 -30 68 -60t125 -30h56q6 0 13.5 -1t7.5 -12q0 -10 -15 -23z" />
<glyph unicode="&#x451;" horiz-adv-x="1129" d="M52 521q0 -106 12 -208t64 -179q33 -46 73 -73t82 -41t86.5 -17t84.5 -3h590v180h-520q-32 0 -65.5 4.5t-63 17.5t-52 38t-34.5 67q-6 24 -10 68t-4 79h618q33 0 62 7.5t53 32.5q34 34 42 77t8 84q0 50 -6.5 99t-23 94t-46 83t-75.5 69q-74 46 -165.5 57t-185.5 11 q-38 0 -88.5 -2.5t-104.5 -11t-107.5 -29t-97.5 -58.5t-69 -84t-38 -101.5t-16 -120.5t-3 -140zM239 1222h217v197h-217v-197zM295 634q2 52 7 97.5t41 85.5q25 27 53.5 41.5t59 20.5t58.5 7t52 1q50 0 103 -7t97 -41q27 -20 48 -56t21 -86q0 -23 -9 -43t-43 -20h-488z M670 1222h217v197h-217v-197z" />
<glyph unicode="&#x452;" horiz-adv-x="1203" d="M0 1184h157v-1184h234v883h275q43 0 88 -10t83 -54q34 -40 43 -88.5t9 -77.5v-344q0 -52 -5 -103t-19 -106q-9 -34 -25.5 -83t-48.5 -109q-16 -30 -35 -62t-41 -65.5t-44 -65t-43 -56.5h261q46 58 73.5 103t48.5 91q18 34 30.5 61.5t21.5 52.5t17 52t16 63 q13 56 20.5 104.5t7.5 112.5v369q0 44 -3 87.5t-15 84.5t-36 78.5t-66 71.5q-50 40 -110.5 56.5t-154.5 16.5h-348v121h312v132h-312v89h-234v-89h-157v-132z" />
<glyph unicode="&#x453;" horiz-adv-x="888" d="M0 0h235v799q0 19 1 34.5t15 29.5q8 8 20 14t28 6h590v180h-740q-34 0 -68.5 -8.5t-57.5 -47.5q-16 -26 -19.5 -56t-3.5 -62v-889zM201 1287l118 -149l325 265l-120 150z" />
<glyph unicode="&#x454;" horiz-adv-x="1049" d="M52 556q0 -100 10.5 -171.5t25 -120.5t30.5 -80t31 -50q38 -50 84 -77t96 -40t98 -15t90 -2h481v180h-458q-96 0 -142.5 30.5t-68.5 72.5q-15 35 -25.5 86.5t-8.5 99.5h674v169h-674q0 38 10.5 85t29.5 80q18 28 42.5 45t51.5 27t54 13t51 3h450v172h-524q-29 0 -67 -4 t-79 -15.5t-82 -34.5t-75 -63q-35 -40 -56 -89.5t-32 -101.5t-14 -104.5t-3 -94.5z" />
<glyph unicode="&#x455;" horiz-adv-x="1057" d="M52 791q0 -40 9.5 -88t40.5 -92q32 -45 90.5 -76t142.5 -53l205 -57q56 -15 90 -25.5t55.5 -18.5t31 -12.5t16.5 -10.5q20 -18 24.5 -38.5t4.5 -42.5q0 -11 -1.5 -31t-17.5 -35q-16 -20 -38.5 -25.5t-40.5 -5.5h-597v-180h680q38 0 84 7t86 37q31 25 59.5 77.5 t28.5 148.5q0 45 -12 98t-51 98q-40 42 -105 67t-161 53l-228 65q-10 2 -28 7.5t-37 12.5t-37.5 15.5t-29.5 18.5q-25 19 -30 39t-5 43q0 22 4 41t26 35q19 16 40.5 18t41.5 2h564v180h-599q-35 0 -70 -2t-68.5 -10.5t-63.5 -27.5t-54 -52q-32 -44 -41 -92t-9 -88z" />
<glyph unicode="&#x456;" horiz-adv-x="394" d="M80 0h236v1063h-236v-1063zM80 1218h236v187h-236v-187z" />
<glyph unicode="&#x457;" horiz-adv-x="507" d="M-40 1204h201v217h-201v-217zM136 0h235v1063h-235v-1063zM347 1204h201v217h-201v-217z" />
<glyph unicode="&#x458;" horiz-adv-x="551" d="M-80 -176v-182q151 -6 250.5 13.5t164.5 65.5q18 13 41.5 36.5t44.5 59.5t35.5 87.5t14.5 121.5v1037h-234v-989q0 -86 -21 -131t-61 -73q-40 -31 -89.5 -39.5t-145.5 -6.5zM237 1218h234v187h-234v-187z" />
<glyph unicode="&#x459;" horiz-adv-x="1819" d="M-20 0h261l477 869q16 29 37 28q7 0 18.5 -9t11.5 -41v-684q0 -8 1 -23.5t5 -33.5t10.5 -36t21.5 -32q29 -28 63.5 -33t57.5 -5h550q51 0 99.5 6t94.5 50q28 26 44 61.5t24 71t10 71t2 65.5q0 58 -12 128.5t-66 122.5q-45 42 -95.5 52t-85.5 10h-490v281q0 81 -53 119 t-189 38q-58 0 -96.5 -10.5t-63.5 -26.5t-40 -33.5t-25 -34.5zM1019 255v214h382q29 0 54.5 -7.5t41.5 -24.5q20 -22 24 -54t4 -54t-4 -56t-26 -58q-22 -25 -49 -30t-45 -5h-315q-10 0 -27 2t-27 15q-4 4 -8.5 16.5t-4.5 41.5z" />
<glyph unicode="&#x45a;" horiz-adv-x="1858" d="M80 0h236v462h507v-299q0 -8 1 -23.5t5 -33.5t11 -36t21 -32q29 -28 63.5 -33t56.5 -5h551q48 0 98 6t96 50q28 26 44.5 61.5t24 71t9.5 70t2 60.5q0 60 -11.5 130t-66.5 125q-29 29 -71.5 48.5t-109.5 19.5h-490v421h-234v-421h-507v421h-236v-1063zM1057 255v207h380 q26 0 52 -4t47 -25q19 -22 23 -48.5t4 -55.5q0 -30 -4 -61t-25 -53q-23 -25 -49 -30t-48 -5h-315q-8 0 -25 2t-27 15q-4 4 -8.5 16.5t-4.5 41.5z" />
<glyph unicode="&#x45b;" horiz-adv-x="1203" d="M0 1184h157v-1184h234v883h275q39 0 84 -9t85 -53q38 -44 46 -97.5t8 -89.5v-634h235v701q0 61 -12 109.5t-29.5 82.5t-37 57t-38.5 38q-57 46 -128.5 60.5t-168.5 14.5h-319v121h312v132h-312v89h-234v-89h-157v-132z" />
<glyph unicode="&#x45c;" horiz-adv-x="1030" d="M80 0h236v1063h-236v-1063zM358 1274l117 -148l326 265l-121 151zM362 548q0 -40 21 -72t38 -53l387 -423h284l-454 473q-12 12 -25 35.5t-13 39.5q0 26 18 49t33 37l403 429h-279l-340 -377q-22 -26 -47.5 -62t-25.5 -76z" />
<glyph unicode="&#x45e;" horiz-adv-x="1145" d="M-20 1063l474 -1059l-163 -345h239l636 1404h-239l-359 -806l-340 806h-248zM201 1391q14 -56 44 -111.5t71 -91.5q57 -52 126.5 -65t129.5 -13q56 0 126 13t131 65q40 34 70 90.5t45 112.5h-184q-3 -18 -15 -41t-35 -46q-32 -30 -65 -39t-73 -9t-73 9t-66 39 q-22 23 -34 46t-16 41h-182z" />
<glyph unicode="&#x45f;" horiz-adv-x="1137" d="M80 140q0 -22 5 -50t28 -52q26 -28 55 -33t60 -5h222v-353h241v353h220q35 0 62 5t53 33q23 25 27 52t4 50v923h-234v-822q0 -14 -1 -28t-10 -22q-7 -8 -17 -9.5t-20 -1.5h-409q-10 0 -21.5 1t-19.5 10q-7 8 -8 21.5t-1 28.5v822h-236v-923z" />
<glyph unicode="&#x490;" horiz-adv-x="1224" d="M140 0h266v1107q0 52 10 71q9 16 20.5 17.5t25.5 1.5h654q23 0 58.5 5.5t62.5 38.5q19 24 23 55t4 41v319h-264v-173q0 -20 -2 -36t-10 -26q-12 -14 -27 -15t-34 -1h-596q-40 0 -77 -8t-68 -43q-24 -28 -35 -66t-11 -78v-1210z" />
<glyph unicode="&#x491;" horiz-adv-x="918" d="M80 0h236v829q0 10 1 28t6 24q6 6 23.5 9t26.5 3h437q29 0 62.5 5.5t54.5 26.5q23 23 27.5 52.5t4.5 54.5v289h-229v-201v-20q0 -8 -12 -20q-11 -10 -22.5 -13.5t-27.5 -3.5h-449q-25 0 -51 -4.5t-53 -32.5q-29 -28 -32 -55t-3 -56v-915z" />
<glyph unicode="&#x2000;" horiz-adv-x="950" />
<glyph unicode="&#x2001;" horiz-adv-x="1900" />
<glyph unicode="&#x2002;" horiz-adv-x="950" />
<glyph unicode="&#x2003;" horiz-adv-x="1900" />
<glyph unicode="&#x2004;" horiz-adv-x="633" />
<glyph unicode="&#x2005;" horiz-adv-x="475" />
<glyph unicode="&#x2006;" horiz-adv-x="316" />
<glyph unicode="&#x2007;" horiz-adv-x="316" />
<glyph unicode="&#x2008;" horiz-adv-x="237" />
<glyph unicode="&#x2009;" horiz-adv-x="380" />
<glyph unicode="&#x200a;" horiz-adv-x="105" />
<glyph unicode="&#x2010;" horiz-adv-x="876" d="M80 437h717v207h-717v-207z" />
<glyph unicode="&#x2011;" horiz-adv-x="876" d="M80 437h717v207h-717v-207z" />
<glyph unicode="&#x2012;" horiz-adv-x="876" d="M80 437h717v207h-717v-207z" />
<glyph unicode="&#x2013;" horiz-adv-x="1147" d="M80 437h988v207h-988v-207z" />
<glyph unicode="&#x2014;" horiz-adv-x="2181" d="M121 437h1940v207h-1940v-207z" />
<glyph unicode="&#x2018;" horiz-adv-x="583" d="M121 1375l252 -404l191 117l-269 393z" />
<glyph unicode="&#x2019;" horiz-adv-x="523" d="M0 1078l174 -107l270 394l-191 116z" />
<glyph unicode="&#x201a;" horiz-adv-x="563" d="M0 -126l174 -107l270 394l-189 116z" />
<glyph unicode="&#x201c;" horiz-adv-x="992" d="M20 1375l253 -404l189 117l-267 393zM429 1375l255 -404l189 117l-269 393z" />
<glyph unicode="&#x201d;" horiz-adv-x="992" d="M20 1078l175 -107l269 394l-189 116zM431 1078l173 -107l269 394l-189 116z" />
<glyph unicode="&#x201e;" horiz-adv-x="973" d="M0 -126l174 -107l268 394l-189 116zM410 -126l174 -107l269 394l-189 116z" />
<glyph unicode="&#x2026;" horiz-adv-x="1331" d="M121 0h245v259h-245v-259zM544 0h245v259h-245v-259zM967 0h245v259h-245v-259z" />
<glyph unicode="&#x202f;" horiz-adv-x="380" />
<glyph unicode="&#x2039;" horiz-adv-x="718" d="M121 564q0 -45 14 -73.5t28 -48.5l274 -382l161 118l-227 326q-9 11 -16.5 27.5t-7.5 32.5q0 19 9.5 34.5t14.5 25.5l227 326l-161 120l-274 -384q-14 -20 -28 -48.5t-14 -73.5z" />
<glyph unicode="&#x203a;" horiz-adv-x="718" d="M121 178l160 -118l275 382q13 20 27.5 48.5t14.5 73.5q0 44 -14 73t-28 49l-275 384l-160 -120l226 -326l15 -25t9 -35q0 -16 -6.5 -32.5t-17.5 -27.5z" />
<glyph unicode="&#x205f;" horiz-adv-x="475" />
<glyph unicode="&#x2122;" horiz-adv-x="2084" d="M0 1247h305v-649h179v649h305v160h-789v-160zM895 598h170v602q0 16 6.5 19t10.5 3q6 0 12 -8t9 -15l195 -519q25 -65 60 -77.5t71 -12.5q66 0 90.5 25t39.5 65l197 519q4 7 10 15t13 8q4 0 9.5 -3t5.5 -19v-602h171v723q0 42 -34.5 69t-118.5 27q-50 0 -97 -16t-68 -68 l-198 -534q-3 -6 -8.5 -16.5t-11.5 -10.5t-11 10.5t-9 16.5l-199 534q-15 40 -51.5 62t-112.5 22q-75 0 -113 -28t-38 -68v-723z" />
<glyph unicode="&#xe000;" horiz-adv-x="1063" d="M0 0v1063h1063v-1063h-1063z" />
</font>
</defs>
</svg>
